<svg width="87" height="95" viewBox="0 0 87 95" fill="none" xmlns="http://www.w3.org/2000/svg">
<path d="M87 20.6799V0.117432H57.3407V32.4299H51.4088V50.0549H25.7053V67.6799H0V94.1174H80.0801V32.4299H60.3066V20.6799H87ZM60.3066 3.05493H84.0341V17.7424H60.3066V3.05493ZM28.6713 52.9924H51.4107V57.8889H28.6713V52.9924ZM2.96593 70.6174H25.7053V75.5139H2.96593V70.6174ZM77.1142 91.1799H2.96593V78.4514H25.7053V84.8166H28.6713V60.8264H51.4107V71.1076H54.3766V43.2014H77.1142V91.1799ZM77.1142 35.3674V40.2639H54.3748V35.3674H77.1142Z" fill="#CDA274"/>
<path d="M79.5852 5.99243H72.6653V8.92993H79.5852V5.99243Z" fill="#CDA274"/>
<path d="M79.585 11.8674H64.7554V14.8049H79.585V11.8674Z" fill="#CDA274"/>
<path d="M32.1303 10.8889V13.8264H40.4145L3.39966 50.4845L5.49805 52.5628L42.511 15.9028V22.1487H45.4769V10.8889H32.1303Z" fill="#CDA274"/>
<path d="M9.39072 81.3889H5.43677V84.3264H9.39072V81.3889Z" fill="#CDA274"/>
<path d="M23.2325 81.3889H19.2786V84.3264H23.2325V81.3889Z" fill="#CDA274"/>
<path d="M35.0963 63.7639H31.1423V66.7014H35.0963V63.7639Z" fill="#CDA274"/>
<path d="M48.9378 63.7639H44.9839V66.7014H48.9378V63.7639Z" fill="#CDA274"/>
<path d="M60.8016 46.1389H56.8477V49.0764H60.8016V46.1389Z" fill="#CDA274"/>
<path d="M74.6412 46.1389H70.6873V49.0764H74.6412V46.1389Z" fill="#CDA274"/>
</svg>
