<svg width="86" height="87" viewBox="0 0 86 87" fill="none" xmlns="http://www.w3.org/2000/svg">
<path d="M58.7669 76.8741H55.9003V69.7075V15.2408C55.9003 14.9541 55.7569 14.5241 55.6136 14.3808L51.4569 1.9108C51.3136 1.33747 50.7403 0.907471 50.1669 0.907471C49.5936 0.907471 49.0203 1.33747 48.8769 1.9108L44.7203 14.3808C44.5769 14.6675 44.4336 14.9541 44.4336 15.2408V69.7075V85.4741C44.4336 86.3341 45.0069 86.9075 45.8669 86.9075H54.4669C55.3269 86.9075 55.9003 86.3341 55.9003 85.4741V79.7408H60.2003C61.0603 79.7408 61.6336 79.1675 61.6336 78.3075V35.3075H58.7669V76.8741ZM47.3003 16.6741H53.0336V68.2741H47.3003V16.6741ZM50.1669 6.92747L52.4603 13.8075H47.8736L50.1669 6.92747ZM53.0336 84.0408H47.3003V71.1408H53.0336V84.0408Z" fill="#CDA274"/>
<path d="M84.5662 0.907471H68.7995C67.9395 0.907471 67.3662 1.4808 67.3662 2.3408V85.4741C67.3662 86.3341 67.9395 86.9075 68.7995 86.9075H84.5662C85.4262 86.9075 85.9995 86.3341 85.9995 85.4741V2.3408C85.9995 1.4808 85.4262 0.907471 84.5662 0.907471ZM83.1329 84.0408H70.2329V74.0075H77.3995V71.1408H70.2329V59.6741H77.3995V56.8075H70.2329V45.3408H77.3995V42.4741H70.2329V31.0075H77.3995V28.1408H70.2329V16.6741H77.3995V13.8075H70.2329V3.77414H83.1329V84.0408Z" fill="#CDA274"/>
<path d="M20.0667 15.2408C9.03 15.2408 0 24.2708 0 35.3075C0 43.0475 4.44333 50.0708 11.4667 53.3675V63.9742V71.1408C11.4667 72.0008 12.04 72.5742 12.9 72.5742H18.6333V76.8742H21.5V72.5742H27.2333C28.0933 72.5742 28.6667 72.0008 28.6667 71.1408V63.9742V53.3675C35.69 50.0708 40.1333 43.0475 40.1333 35.3075C40.1333 24.2708 31.1033 15.2408 20.0667 15.2408ZM25.8 69.7075H14.3333V65.4075H25.8V69.7075ZM26.66 51.2175C26.0867 51.3608 25.8 51.9342 25.8 52.5075V62.5408H14.3333V59.6742H21.5V56.8075H14.3333V52.5075C14.3333 51.9342 14.0467 51.3608 13.4733 51.2175C7.02333 48.4942 2.86667 42.1875 2.86667 35.3075C2.86667 25.8475 10.6067 18.1075 20.0667 18.1075C29.5267 18.1075 37.2667 25.8475 37.2667 35.3075C37.2667 42.1875 33.11 48.4942 26.66 51.2175Z" fill="#CDA274"/>
<path d="M23.3637 27.1375L20.067 30.4341L16.7703 27.1375L14.7637 29.1441L18.6337 33.0141V48.2075H21.5003V33.0141L25.3703 29.1441L23.3637 27.1375Z" fill="#CDA274"/>
</svg>
