<svg width="90" height="91" viewBox="0 0 90 91" fill="none" xmlns="http://www.w3.org/2000/svg">
<path d="M90 42.1092V38.4639L46.9216 7.27052H43.0784L33.3871 14.2872V8.72213H36.2903V0.0124512H7.25806V8.72213H10.1613V31.106L0 38.4639V42.1092H7.25806V63.8834H0V84.206H7.25806V90.0125H82.7419V59.5286C86.7448 59.5286 90 56.2733 90 52.2705C90 48.2677 86.7448 45.0125 82.7419 45.0125V42.1092H90ZM10.1613 2.91568H33.3871V5.8189H10.1613V2.91568ZM30.4839 8.72213V16.3903L13.0645 29.0048V8.72213H30.4839ZM5.80645 75.4963V81.3028H2.90323V66.7866H69.6774V81.3028H66.7742V75.4963H63.871V81.3028H60.9677V75.4963H58.0645V81.3028H55.1613V75.4963H52.2581V81.3028H49.3548V75.4963H46.4516V81.3028H43.5484V75.4963H40.6452V81.3028H37.7419V75.4963H34.8387V81.3028H31.9355V75.4963H29.0323V81.3028H26.129V75.4963H23.2258V81.3028H20.3226V75.4963H17.4194V81.3028H14.5161V75.4963H11.6129V81.3028H8.70968V75.4963H5.80645ZM79.8387 87.1092H10.1613V84.206H72.5807V63.8834H10.1613V42.1092H79.8387V45.0125H27.1415L16.2544 52.2705L27.1415 59.5286H79.8387V87.1092ZM76.9355 47.9157V56.6254H74.0323V47.9157H76.9355ZM30.4839 50.8189V47.9157H71.129V50.8189H30.4839ZM71.129 53.7221V56.6254H30.4839V53.7221H71.129ZM27.5806 48.2096V56.3332L21.4875 52.2705L27.5806 48.2096ZM87.0968 52.2705C87.0968 54.6711 85.1425 56.6254 82.7419 56.6254H79.8387V47.9157H82.7419C85.1425 47.9157 87.0968 49.8699 87.0968 52.2705ZM3.92661 39.206L44.0183 10.1737H45.9817L86.0734 39.206H3.92661Z" fill="#CDA274"/>
<path d="M45 14.5281C38.5966 14.5281 33.3871 19.7376 33.3871 26.141C33.3871 32.5444 38.5966 37.7539 45 37.7539C51.4034 37.7539 56.6129 32.5444 56.6129 26.141C56.6129 19.7376 51.4034 14.5281 45 14.5281ZM45 34.8507C40.197 34.8507 36.2903 30.944 36.2903 26.141C36.2903 21.338 40.197 17.4313 45 17.4313C49.803 17.4313 53.7097 21.338 53.7097 26.141C53.7097 30.944 49.803 34.8507 45 34.8507Z" fill="#CDA274"/>
</svg>
