<svg width="10" height="14" viewBox="0 0 10 14" fill="none" xmlns="http://www.w3.org/2000/svg">
<path d="M0.574524 4.47175L0.714524 1.63175C1.11452 1.40508 1.60786 1.21175 2.19452 1.05175C2.79452 0.891747 3.46786 0.811747 4.21452 0.811747C5.28119 0.811747 6.14119 0.96508 6.79452 1.27175C7.44786 1.56508 7.92786 1.97175 8.23452 2.49175C8.54119 3.01175 8.69452 3.59841 8.69452 4.25175C8.69452 5.17175 8.24786 6.07175 7.35452 6.95175C6.46119 7.81841 5.24119 8.77841 3.69452 9.83175C3.40119 10.0451 3.05452 10.3051 2.65452 10.6117C2.25452 10.9184 1.88119 11.2184 1.53452 11.5117H9.03452V13.7917H0.234524V12.1117C0.714524 11.6451 1.18119 11.1851 1.63452 10.7317C2.10119 10.2651 2.54119 9.82508 2.95452 9.41175C3.91452 8.42508 4.62786 7.55175 5.09452 6.79175C5.57452 6.01841 5.81452 5.19175 5.81452 4.31175C5.81452 3.39175 5.64786 2.65175 5.31452 2.09175C4.98119 1.51841 4.48119 1.23175 3.81452 1.23175C3.40119 1.23175 3.01452 1.33841 2.65452 1.55175C2.30786 1.75175 2.00119 2.10508 1.73452 2.61175L0.774524 4.47175H0.574524Z" fill="#CDA274"/>
</svg>
