<svg width="10" height="14" viewBox="0 0 10 14" fill="none" xmlns="http://www.w3.org/2000/svg">
<path d="M4.27452 13.3C3.38119 13.3 2.64786 13.2 2.07452 13C1.51452 12.8 0.961191 12.5667 0.414524 12.3L0.634524 9.7H0.834524L1.71452 11.32C2.30119 12.3733 3.11452 12.9 4.15452 12.9C4.76786 12.9 5.26119 12.6467 5.63452 12.14C6.02119 11.62 6.21452 10.7533 6.21452 9.54C6.21452 8.48667 6.05452 7.73333 5.73452 7.28C5.41452 6.81333 4.86786 6.58 4.09452 6.58H2.89452V6.18H3.95452C4.66119 6.18 5.16786 5.96667 5.47452 5.54C5.79452 5.11333 5.95452 4.37333 5.95452 3.32C5.95452 2.29333 5.80119 1.56667 5.49452 1.14C5.18786 0.699999 4.78119 0.479999 4.27452 0.479999C3.76786 0.479999 3.34119 0.626666 2.99452 0.919999C2.66119 1.21333 2.38786 1.56 2.17452 1.96L1.27452 3.64L1.07452 3.62L1.27452 0.679999C1.70119 0.493332 2.17452 0.339999 2.69452 0.219999C3.22786 0.0866656 3.82119 0.019999 4.47452 0.019999C5.87452 0.019999 6.93452 0.326666 7.65452 0.939999C8.38786 1.54 8.75452 2.29333 8.75452 3.2C8.75452 3.85333 8.47452 4.48 7.91452 5.08C7.35452 5.66667 6.47452 6.07333 5.27452 6.3C6.63452 6.42 7.62119 6.78667 8.23452 7.4C8.84786 8.01333 9.15452 8.75333 9.15452 9.62C9.15452 10.3133 8.95452 10.94 8.55452 11.5C8.16786 12.06 7.60786 12.5 6.87452 12.82C6.15452 13.14 5.28786 13.3 4.27452 13.3Z" fill="#CDA274"/>
</svg>
