<svg width="69" height="102" viewBox="0 0 69 102" fill="none" xmlns="http://www.w3.org/2000/svg">
<path fill-rule="evenodd" clip-rule="evenodd" d="M34.2003 101.039H11.8979C11.4723 93.2942 7.64117 89.4657 0.0546875 88.96V25.5789C7.16379 24.5143 10.7406 20.5321 10.7851 13.6323H34.2003H57.6155C57.6601 20.5321 61.2368 24.5143 68.3459 25.5789V88.96C60.7595 89.4657 56.9283 93.2942 56.5028 101.039H34.2003ZM54.4679 98.7923C55.4513 92.0149 59.3275 88.0203 66.0991 86.9501V27.431C59.9804 25.9614 56.244 22.0906 55.5041 15.8791H12.8965C12.1566 22.0906 8.42022 25.9614 2.30148 27.431V86.9501C9.07316 88.0203 12.9493 92.0149 13.9327 98.7923H54.4679Z" fill="#292F36"/>
<path fill-rule="evenodd" clip-rule="evenodd" d="M40.819 42.8695H55.2616V47.1617H38.6187C38.4327 46.705 38.4646 46.2521 38.8049 45.7858L54.1528 45.8383V44.3361L40.6858 44.2646C40.7814 44.1608 40.8569 44.0556 40.9141 43.9511C41.1405 43.5369 41.0777 43.1328 40.819 42.8695Z" fill="#292F36"/>
<path fill-rule="evenodd" clip-rule="evenodd" d="M14.1289 42.8695H27.5828C27.3238 43.1332 27.2612 43.5381 27.4887 43.9528C27.533 44.0336 27.5884 44.1149 27.6555 44.1955L23.8221 44.1751L22.8027 45.731L29.5719 45.7542C29.9342 46.2317 29.9734 46.6947 29.7831 47.1617H14.1289V42.8695V42.8695Z" fill="#292F36"/>
<path fill-rule="evenodd" clip-rule="evenodd" d="M61.7237 66.2772C60.9403 69.2244 60.9045 72.6582 61.6163 76.5785L34.2004 33.3704L7.08789 76.1135L8.59018 64.8107L7.83901 63.9702L34.2004 21.9248L61.7237 66.2772V66.2772Z" fill="#292F36"/>
<path fill-rule="evenodd" clip-rule="evenodd" d="M13.7932 63.1475L24.7224 45.7375L29.5705 45.7541L29.5703 45.7538C29.5517 45.7295 29.5325 45.7051 29.5122 45.6807C29.4863 45.6493 29.4589 45.6177 29.4302 45.5862C29.4011 45.5544 29.3707 45.5225 29.3387 45.4905C29.3157 45.4675 29.2919 45.4445 29.2674 45.4214C29.2234 45.3802 29.1774 45.3389 29.1284 45.2974C29.1115 45.2831 29.0943 45.2688 29.0768 45.2544C29.0161 45.2048 28.9525 45.155 28.8844 45.105L28.8566 45.0846C28.779 45.0284 28.6971 44.9718 28.6098 44.9149L28.6009 44.9091C28.5079 44.8488 28.4096 44.7881 28.3053 44.7269L28.292 44.7191L28.2862 44.7157L28.2789 44.7113L28.2674 44.7044L28.2658 44.7034L28.2528 44.6956L28.2488 44.6931L28.24 44.6876L28.2304 44.6817L28.2272 44.6797L28.2146 44.6718L28.2122 44.6703L28.202 44.6639L28.1942 44.6589L28.1896 44.6559L28.1772 44.6479L28.1765 44.6474L28.165 44.6399L28.1589 44.6359L28.1528 44.6318L28.1415 44.6242L28.1408 44.6238L28.1288 44.6157L28.1243 44.6127L28.1169 44.6076L28.1074 44.601L28.1052 44.5995L28.0936 44.5914L28.0906 44.5893L28.082 44.5832L28.0741 44.5776L28.0705 44.5751L28.0592 44.5669L28.0577 44.5659L28.0479 44.5587L28.0416 44.5541L28.0367 44.5505L28.0257 44.5423H28.0256L28.0147 44.534L28.0099 44.5304L28.0038 44.5258L27.9943 44.5185L27.993 44.5175L27.9823 44.5093L27.979 44.5067L27.9718 44.501L27.9638 44.4947L27.9613 44.4927L27.9509 44.4843L27.9489 44.4827L27.9406 44.476L27.9342 44.4707L27.9304 44.4676L27.9203 44.4593L27.9196 44.4587L27.9103 44.4509L27.9053 44.4467L27.9004 44.4425L27.8911 44.4346L27.8906 44.4341L27.8808 44.4257L27.8771 44.4225L27.8712 44.4173L27.8634 44.4104L27.8617 44.4088L27.8522 44.4004L27.8498 44.3982L27.8429 44.3919L27.8364 44.3861L27.8336 44.3835L27.8245 44.375L27.8233 44.3739L27.8154 44.3665L27.8103 44.3617L27.8064 44.358L27.7976 44.3495L27.7975 44.3494L27.7888 44.341L27.7849 44.3372L27.7801 44.3324L27.7725 44.3249L27.7715 44.3239L27.7554 44.3077L27.7546 44.3068L27.7482 44.3003L27.7462 44.2983L27.738 44.2897L27.7364 44.288L27.7299 44.2811L27.7247 44.2757L27.7218 44.2725L27.7139 44.2639L27.7133 44.2633L27.706 44.2554L27.702 44.251L27.6982 44.2468L27.6909 44.2386L27.6905 44.2381L27.683 44.2295L27.68 44.2262L27.6754 44.2209L27.6739 44.2192L27.6681 44.2123L27.6607 44.2036L27.6588 44.2014L27.6535 44.195L25.6964 44.1846L33.6978 31.4385L33.7872 28.4341L23.8326 44.1747L23.8201 44.1747L22.8485 45.7307L12.4336 62.1993L13.7927 63.1471L13.7932 63.1475Z" fill="white"/>
<path fill-rule="evenodd" clip-rule="evenodd" d="M34.7891 28.059V25.0544L46.849 44.2974L54.1519 44.3361V45.8383L47.8011 45.8166L60.4617 66.0179C60.2534 66.6888 60.1193 67.583 60.0592 68.7006L45.8262 45.8098L38.8039 45.7858L38.8043 45.7852C38.8373 45.7401 38.8732 45.6948 38.9121 45.6494C38.9227 45.637 38.9335 45.6246 38.9445 45.6122C38.987 45.5644 39.0328 45.5165 39.082 45.4683L39.1119 45.4395C39.1658 45.3881 39.2237 45.3365 39.2854 45.2846L39.3084 45.2655C39.3753 45.2102 39.4468 45.1547 39.523 45.0989L39.5355 45.0897C39.6159 45.0311 39.7015 44.9723 39.7925 44.9131L39.7967 44.9104C39.8901 44.8496 39.9892 44.7885 40.0942 44.727L40.1133 44.7157L40.1173 44.7133L40.1288 44.7064L40.1322 44.7044L40.1402 44.6995L40.1508 44.693L40.1514 44.6927L40.1626 44.6857L40.1693 44.6816L40.1738 44.6788L40.1848 44.6719L40.1875 44.6702L40.1958 44.6649L40.2055 44.6587L40.2067 44.6579L40.2176 44.6509L40.2233 44.6472L40.2283 44.644L40.239 44.6369L40.2409 44.6356L40.2496 44.6299L40.2583 44.6241L40.2601 44.6229L40.2706 44.6158L40.2755 44.6124L40.281 44.6087L40.2912 44.6017L40.2925 44.6008L40.3015 44.5946L40.3093 44.589L40.3217 44.5803L40.3259 44.5773L40.3317 44.5732L40.3416 44.566L40.3423 44.5655L40.3585 44.5537L40.3612 44.5517L40.3709 44.5445L40.3744 44.5419L40.3805 44.5373L40.3901 44.5301L40.3902 44.53L40.3996 44.5229L40.4058 44.5181L40.409 44.5156L40.4183 44.5084L40.4211 44.5062L40.4275 44.5012L40.4363 44.4942L40.4367 44.4939L40.4458 44.4866L40.4513 44.4822L40.4549 44.4793L40.4638 44.472L40.4661 44.4702L40.4727 44.4647L40.4806 44.4581L40.4815 44.4574L40.4903 44.4501L40.495 44.4461L40.4989 44.4427L40.5075 44.4354L40.516 44.428L40.5231 44.4218L40.5245 44.4207L40.5329 44.4133L40.5369 44.4097L40.5412 44.4059L40.5494 44.3985L40.5505 44.3975L40.5576 44.3911L40.5639 44.3853L40.5656 44.3837L40.5737 44.3763L40.5771 44.3731L40.5816 44.3689L40.5895 44.3615L40.5901 44.3609L40.5973 44.354L40.6029 44.3486L40.605 44.3466L40.6127 44.3391L40.6155 44.3363L40.6203 44.3317L40.6278 44.3242L40.6279 44.324L40.6352 44.3167L40.6402 44.3117L40.6426 44.3092L40.6499 44.3017L40.6522 44.2994L40.6571 44.2943L40.6641 44.287L40.6643 44.2868L40.6714 44.2793L40.6757 44.2747L40.6784 44.2717L40.6854 44.2642L44.8798 44.2865L34.7896 28.0586L34.7891 28.059Z" fill="white"/>
<path fill-rule="evenodd" clip-rule="evenodd" d="M34.0266 37.5613H34.2886C34.5116 37.5613 34.6941 37.7438 34.6941 37.9669V71.3202H33.6211V37.9669C33.6211 37.7438 33.8036 37.5613 34.0267 37.5613H34.0266Z" fill="white" stroke="#292F36" stroke-width="0.287865" stroke-miterlimit="22.9256"/>
<path fill-rule="evenodd" clip-rule="evenodd" d="M32.6966 42.0769H32.9585C33.1815 42.0769 33.3641 42.2594 33.3641 42.4825V71.3203H32.291V42.4825C32.291 42.2594 32.4735 42.0769 32.6966 42.0769H32.6966Z" fill="white" stroke="#292F36" stroke-width="0.287865" stroke-miterlimit="22.9256"/>
<path fill-rule="evenodd" clip-rule="evenodd" d="M29.7911 81.7291C23.8578 81.9902 20.1477 79.7211 18.2597 75.1201L21.3676 73.9495L14.5538 69.0671L9.92188 75.8809L12.4256 75.7021C15.132 84.6651 21.5226 88.54 31.5973 87.3267L34.2009 89.4371L36.8044 87.3267C46.8792 88.54 53.2697 84.6651 55.9761 75.7021L58.4799 75.8809L53.8479 69.0671L47.0341 73.9495L50.142 75.1201C48.254 79.7211 44.544 81.9902 38.6107 81.7291C38.4303 74.4088 40.8522 67.5396 44.9955 60.5721C50.7135 50.9567 33.3257 48.6953 40.0954 44.7268C40.5042 44.4872 40.769 44.217 40.9144 43.9509C41.2966 43.2516 40.8544 42.5809 40.0371 42.5683C39.6621 42.5626 39.2091 42.6971 38.7184 43.0278C32.5827 47.1615 39.9818 50.8093 41.9555 52.7388C46.2122 56.9002 42.9533 62.1944 36.7697 63.2202V71.3201H31.5476L31.5445 63.1875C25.277 62.2923 22.044 57.467 26.4462 52.7388C28.2365 50.816 35.4359 47.7271 29.6833 43.0278C29.2258 42.654 28.7411 42.563 28.3663 42.5683C27.5472 42.5799 27.104 43.2522 27.4882 43.9527C27.6338 44.2181 27.8983 44.4877 28.3062 44.7268C35.0759 48.6953 17.6882 50.9567 23.4061 60.5721C27.5495 67.5396 29.9713 74.4087 29.791 81.7291H29.7911Z" fill="#292F36"/>
<path fill-rule="evenodd" clip-rule="evenodd" d="M35.3606 42.059H35.6225C35.8456 42.059 36.0281 42.2415 36.0281 42.4645V71.3202H34.9551V42.4645C34.9551 42.2415 35.1376 42.059 35.3607 42.059H35.3606Z" fill="white" stroke="#292F36" stroke-width="0.287865" stroke-miterlimit="22.9256"/>
<path fill-rule="evenodd" clip-rule="evenodd" d="M38.6614 83.8251L38.5898 85.2916C48.2585 85.3773 53.278 80.9301 53.6483 71.95L50.3576 74.0603L52.3249 74.9903C50.48 80.3263 46.319 84.6304 38.6614 83.8251Z" fill="#383820" stroke="#2B2A29" stroke-width="0.287865" stroke-miterlimit="22.9256" stroke-linecap="round" stroke-linejoin="round"/>
<path fill-rule="evenodd" clip-rule="evenodd" d="M29.7408 83.8251L29.8123 85.2916C20.1437 85.3773 15.1242 80.9301 14.7539 71.95L18.0446 74.0603L16.0773 74.9903C17.9222 80.3263 22.0832 84.6304 29.7408 83.8251Z" fill="#383820" stroke="#2B2A29" stroke-width="0.287865" stroke-miterlimit="22.9256" stroke-linecap="round" stroke-linejoin="round"/>
<path d="M36.0073 72.9684H32.415C31.6982 72.9684 31.1172 73.4168 31.1172 73.9699C31.1172 74.523 31.6982 74.9714 32.415 74.9714H36.0073C36.724 74.9714 37.3051 74.523 37.3051 73.9699C37.3051 73.4168 36.724 72.9684 36.0073 72.9684Z" fill="#383820" stroke="#2B2A29" stroke-width="0.287865" stroke-miterlimit="22.9256"/>
<path fill-rule="evenodd" clip-rule="evenodd" d="M28.6011 22.0192L27.7724 22.0177L27.7758 22.8761L28.5658 22.8967L28.6011 22.0192ZM30.2461 22.0127L29.394 22.0127L29.4007 22.8918L30.2104 22.8983L30.2461 22.0127ZM36.045 22.05L35.1954 22.0064L35.2026 22.8888L36.0339 22.8834L36.0451 22.05H36.045ZM37.6599 22.0176L36.7991 22.0237L36.8066 22.863L37.6331 22.8995L37.6599 22.0175V22.0176ZM31.9011 22.009L31.0334 22.0134L31.0256 22.8635L31.9023 22.8846L31.9011 22.009ZM39.274 22.0049L38.4696 22.0112L38.4595 22.877L39.272 22.8817L39.274 22.0049ZM40.9259 22.0455L40.0844 22.0101L40.0968 22.8798C41.0868 22.9883 40.9426 22.9285 40.926 22.0455H40.9259ZM44.6344 21.5586L44.6666 21.0987C44.3704 21.244 43.4412 22.2271 43.3042 22.4467C43.7336 22.4601 43.9408 22.4829 44.0738 22.1138C44.2887 21.5174 44.1947 21.9424 44.6343 21.5587L44.6344 21.5586ZM29.2493 20.3883L28.3922 20.3813L28.3923 21.2077L29.2149 21.2274L29.2493 20.3883ZM30.8889 20.3983L30.0521 20.3813L30.0504 21.2035L30.8688 21.2259L30.8889 20.3983ZM37.0281 20.3977L36.1292 20.3842L36.1295 21.2042L37.009 21.2251L37.0281 20.3977H37.0281ZM27.62 20.3722L26.786 20.3759L26.7703 21.2134L27.618 21.2238L27.6199 20.3722L27.62 20.3722ZM32.5063 20.3722L31.6759 20.3775L31.6601 21.2058L32.5052 21.2255L32.5063 20.3722L32.5063 20.3722ZM35.36 20.3716L34.5265 20.3777L34.5138 21.2046L35.3605 21.2255L35.3599 20.3716L35.36 20.3716ZM38.6394 20.3722L37.8037 20.3734L37.7844 21.2193L38.6404 21.2206L38.6393 20.3722H38.6394ZM40.266 20.3964L39.4131 20.374L39.4122 21.2204C40.3854 21.2671 40.3158 21.356 40.266 20.3964V20.3964ZM31.0544 18.842C30.8902 18.9883 30.8718 19.0961 30.8559 19.2832L31.3133 19.2624L31.3987 18.8452L31.0544 18.842H31.0544ZM41.5984 18.9041C41.438 18.7721 41.3655 18.7374 41.189 18.5665C41.0343 18.6947 40.8663 19.079 40.8544 19.2791L41.969 19.2606L41.5985 18.9041L41.5984 18.9041ZM33.1662 16.3142C33.1672 16.0294 33.2298 15.6343 33.0813 15.3897C32.7559 15.852 31.8281 18.5521 31.5552 19.2799L33.1679 19.2587L33.1662 16.3141V16.3142ZM40.6856 18.7719C40.2859 18.7791 40.1487 18.8627 40.1518 19.283C40.4613 19.2793 40.3858 19.3202 40.6224 19.1905L40.6856 18.7719ZM29.3731 19.2722L29.7595 19.2807L29.9399 18.8473C29.5692 18.8433 29.4093 18.8248 29.3731 19.2722ZM30.1036 19.2794L30.5803 19.2772L30.699 18.8507L30.3037 18.8434C30.1119 19.0536 30.1119 19.0795 30.1036 19.2794ZM39.4584 18.7918L39.2755 19.271C39.8774 19.304 39.9064 19.3513 40.0034 18.7717L39.4584 18.7918ZM45.7714 18.8615C45.6786 18.6908 44.7717 17.677 44.5671 17.5855C44.0151 18.5222 43.5688 18.9621 43.4049 19.2362L43.8293 19.386L43.8362 20.1237C44.6008 20.1805 44.558 20.1599 45.0225 19.6877C45.2395 19.4671 45.6026 19.1527 45.7713 18.8616L45.7714 18.8615ZM31.6786 18.1584C31.2232 18.163 31.1159 18.2502 31.0949 18.6777L31.499 18.6908L31.6786 18.1584ZM40.9147 18.4439C40.8248 18.2822 40.7801 18.2061 40.5789 18.1369L40.3812 18.6649L40.7385 18.6815L40.9147 18.4439ZM29.6437 18.6873L30.0332 18.6968L30.2458 18.1574C29.8337 18.1589 29.6614 18.183 29.6438 18.6873H29.6437ZM30.3445 18.6733C30.7921 18.693 30.8724 18.6925 30.9759 18.1653L30.5087 18.1569L30.3445 18.6733ZM42.346 15.7385C42.0056 16.0716 41.266 18.2227 41.2609 18.3371C41.4619 18.5161 42.1443 19.098 42.3481 19.1848L42.346 15.7385ZM25.1927 18.1374L22.3669 18.1377C22.3551 18.4388 22.4348 18.5688 22.5325 18.8034L25.2237 18.8044L25.1927 18.1374H25.1927ZM25.9249 17.6236L25.9355 18.8045L27.5297 18.796C27.6481 18.6026 27.7857 18.3239 27.8254 18.0142L25.925 17.6236L25.9249 17.6236ZM39.546 18.6742L40.087 18.684L40.3424 18.1225L39.8231 18.119L39.5461 18.6742H39.546ZM40.3916 17.9829C40.3389 17.8298 40.1313 17.7118 40.0105 17.6227L39.9289 18.008L40.3916 17.9829V17.9829ZM41.2904 17.4139L40.868 17.4323L40.728 17.9089L41.0388 18.0028C41.1986 17.8345 41.2377 17.7002 41.2904 17.4139H41.2904ZM30.8184 17.5054L30.6442 18.0052C31.1372 17.9963 31.1604 17.9843 31.2246 17.5067L30.8184 17.5054ZM30.2286 18.0032C30.4276 17.8879 30.4677 17.7332 30.516 17.5148L30.1279 17.4993L29.9126 17.9951L30.2286 18.0032H30.2286ZM31.7614 17.9929C31.8985 17.7474 31.8924 17.8177 31.9291 17.5172C31.6169 17.5056 31.42 17.5116 31.3872 18.0035L31.7614 17.9929ZM40.621 17.513C40.5133 17.4418 40.8153 17.4199 40.3135 17.4106C40.4259 17.6349 40.4309 17.7395 40.621 17.513ZM39.8196 17.4278C39.6657 17.2826 39.3132 17.0148 39.162 16.8859C38.9208 17.2268 38.0528 19.1073 38.0051 19.2714C39.0939 19.298 38.858 19.3784 39.3126 18.4853C39.457 18.2015 39.7575 17.6904 39.8196 17.4277V17.4278ZM42.9713 15.8026L42.9555 19.2818C43.3564 19.0777 44.3064 17.6864 44.4038 17.3631L42.9713 15.8026ZM47.1102 17.4381C46.8142 17.1735 45.6692 15.8718 45.3163 15.7208C45.1675 16.4334 44.967 16.6494 44.7582 17.2882C45.0355 17.6592 45.7944 18.5185 45.9934 18.6409C46.2905 18.4578 46.393 18.2497 46.6097 18.0544C46.8345 17.852 47.0062 17.7427 47.1102 17.4381ZM40.8596 16.7898C40.3124 16.7989 40.359 16.8852 40.2405 17.3376L40.711 17.3441L40.8596 16.7899V16.7898ZM31.1294 16.85C30.978 17.071 30.9923 17.0479 30.9383 17.3327C31.3959 17.3223 31.4537 17.2702 31.5201 16.8344L31.1294 16.85ZM41.1889 16.8094L40.9631 17.3709L41.3515 17.3704L41.5934 16.7916L41.1889 16.8094ZM30.6633 17.3363L30.8081 16.8454L30.3759 16.8423L30.2207 17.3281L30.6633 17.3363ZM32.0219 17.3492L32.1949 16.8379C31.7571 16.8387 31.6895 16.8742 31.6712 17.3479L32.0219 17.3492ZM23.1971 17.2659C23.3494 16.8974 23.5061 16.9785 23.6144 16.6904C23.3491 16.5595 23.1739 16.7674 23.0351 17.065C22.7712 16.8546 22.5482 16.5417 22.4155 16.6801C22.295 16.8057 22.6713 17.1015 22.7618 17.2134C22.5915 17.4966 22.4061 17.49 22.3633 17.7998C22.7472 17.8232 22.6124 17.6215 23.0218 17.4325C23.2261 17.6428 23.2952 17.834 23.6068 17.7933C23.5773 17.5579 23.3415 17.4474 23.1971 17.2659ZM38.9223 16.6972C38.6837 16.4973 38.191 16.022 37.8858 15.8903C37.7374 16.1263 36.2938 19.1967 36.2847 19.276L37.7005 19.269C37.9156 18.9319 38.772 17.0833 38.9223 16.6972ZM32.0237 16.3115C31.9992 16.3567 31.9476 16.5883 31.9331 16.6804C32.3975 16.6638 32.3327 16.614 32.4346 16.1483C32.0715 16.1568 32.1608 16.0585 32.0237 16.3115H32.0237ZM31.2115 16.668L31.6037 16.6843L31.8219 16.1508L31.4297 16.1647C31.3465 16.2971 31.2487 16.5258 31.2115 16.668V16.668ZM24.1993 16.3471C24.0403 15.8082 23.1986 14.8674 22.6832 14.6555L22.6858 16.3443L24.1993 16.3471ZM40.5391 16.7046L41.0187 16.6627L41.1942 16.1076C40.6694 16.1125 40.6239 16.26 40.5391 16.7046V16.7046ZM41.4327 16.1134L41.2475 16.7063C41.7664 16.6976 41.7647 16.572 41.8619 16.1126L41.4327 16.1134ZM31.1083 16.1639L30.6814 16.1537L30.5041 16.6812L30.9169 16.6684L31.1083 16.1639ZM32.6742 15.5136C32.231 15.5476 32.2768 15.5634 32.2104 15.9915L32.5869 15.9618L32.6742 15.5136ZM40.6953 15.5992C40.274 15.5141 40.2578 15.3347 39.8999 15.247L39.2559 16.614C39.4474 16.8303 39.7431 17.0788 39.9647 17.2037C40.1751 16.82 40.6567 16.0343 40.6953 15.5991V15.5992ZM41.3385 15.9419C41.3268 15.8997 41.4485 15.635 41.0395 15.7426C40.9384 15.7693 40.8892 15.8511 40.8411 16.0074L41.3385 15.9418V15.9419ZM30.9808 15.492C30.8887 15.6968 30.8309 15.7337 30.8188 15.9932L31.2074 15.9973C31.283 15.847 31.3539 15.7468 31.3635 15.4927L30.9808 15.492V15.492ZM31.525 15.9944L31.9154 15.9749C32.035 15.7049 32.0121 15.8448 32.0663 15.5122C31.6329 15.5203 31.5706 15.5249 31.525 15.9944ZM37.6601 15.6401C37.1959 15.2375 37.0179 14.8685 36.2437 15.0412C35.8812 15.1221 35.9938 15.0221 35.8651 15.2657C35.8011 15.3868 35.6616 16.7009 34.7964 17.9519C34.2022 18.811 33.952 18.4991 34.0355 19.2677C36.2618 19.3174 35.8892 19.3883 36.3018 18.554L37.6602 15.6401H37.6601ZM41.9544 16.0041C42.0252 15.8019 42.0341 15.8628 42.0655 15.6495C41.6566 15.6348 41.627 15.649 41.5371 16.0047L41.9544 16.0041ZM45.1018 15.5651C44.5218 15.35 43.833 15.3089 43.2736 15.6401L44.567 17.0699C44.8072 16.7797 45.1185 16.05 45.1018 15.5651V15.5651ZM31.8457 15.1906C32.0525 15.3595 32.0278 15.316 32.2259 15.2534C32.2056 15.1543 32.1766 15.0846 32.0752 15.0535C31.8065 14.9711 31.9481 15.0309 31.8457 15.1906ZM35.624 15.1156C35.4518 15.0327 34.9689 14.9045 34.8078 14.8601C34.2211 15.2635 34.8913 14.9186 34.033 15.3404L34.035 18.3711C34.3393 18.1281 34.4667 18.0654 34.657 17.7366C35.0267 17.0976 35.5954 15.8059 35.624 15.1156ZM28.0912 15.1156C27.7507 14.5695 26.8187 14.2983 25.9279 14.2794C25.9115 15.5621 25.8631 15.2325 26.3898 15.5749C26.6348 15.7342 26.7661 15.8871 27.0756 16.0335C27.3194 15.8751 27.9893 15.3385 28.0912 15.1156V15.1156ZM28.7525 18.4272C28.3781 18.3421 28.4122 18.2696 28.1266 18.1827C28.0111 18.4086 27.8971 18.5902 27.8328 18.8018C28.9464 18.8497 28.5299 19.1443 28.8772 19.5178C29.1744 19.2794 30.1202 16.8069 30.4245 16.137C30.5774 15.8004 30.7984 15.406 30.891 15.0408C30.7567 14.9852 29.8506 14.7194 29.7781 14.7175L28.8809 16.5471C28.1431 18.1722 28.3966 17.244 28.7525 18.4272V18.4272ZM31.0901 15.3223L31.4847 15.3281C31.5524 15.1913 31.6171 15.1188 31.6153 14.9422L31.203 15.0107C31.1481 15.0891 31.0985 15.2075 31.0901 15.3224V15.3223ZM28.8022 14.3162C28.5203 14.6504 28.5207 15.0356 28.1707 15.3784L27.2791 16.2395C27.5327 16.5037 27.9955 17.0911 28.2017 17.2703C28.518 16.6596 29.2601 15.2522 29.4664 14.6809C29.0897 14.5462 29.0325 14.4617 28.8022 14.3162L28.8022 14.3162ZM38.1005 14.7392L37.2248 14.8865C37.3958 15.1115 37.5653 15.266 37.8315 15.3768L38.1005 14.7392H38.1005ZM41.2412 14.6429C41.1981 14.358 41.2406 14.5073 41.0851 14.3169C40.6688 14.2365 40.3764 14.3586 40.202 14.6509L41.2412 14.6429H41.2412ZM42.2823 14.1125C41.8618 14.1762 41.6962 14.2678 41.6489 14.6475L42.2543 14.6519L42.2823 14.1125H42.2823ZM43.7783 14.619C43.5285 14.5081 43.5693 14.0774 42.7816 14.0836L42.7939 14.6497L43.7783 14.619ZM45.3174 14.6411C44.9001 13.999 44.2963 14.2031 43.9972 14.6483L45.3174 14.6411ZM47.4233 17.2677C48.0474 16.5475 47.8476 16.5731 47.848 15.4903C47.8493 12.7444 48.0829 12.9225 47.1211 12.9258C46.2774 12.9288 46.3412 12.8783 46.258 13.2051C46.0227 14.1289 45.9013 14.0379 45.537 14.6514C45.8812 14.6521 46.6113 14.5923 46.8357 14.741C46.7499 15.0868 46.88 14.818 46.5953 15.0422C46.2099 15.3456 46.1602 15.3572 45.6266 15.49C45.7692 15.8244 46.5228 16.4613 46.9264 16.8798C47.3377 17.3063 47.1682 17.2132 47.4233 17.2677ZM25.2121 14.293C24.8918 14.3154 24.6546 14.3183 24.4166 14.5163C24.5726 14.6315 24.972 14.8006 25.2127 14.8711L25.2121 14.293ZM39.7588 15.0407C39.6029 14.922 39.4463 15.0233 39.4118 14.741C39.7412 14.4802 39.9154 14.8762 40.0758 14.2995C39.7411 14.4105 39.7685 14.5107 39.3238 14.5957C39.0637 14.6454 38.7151 14.6314 38.4124 14.6802C38.2745 14.9862 38.0937 15.2653 38.0533 15.6274C38.2117 15.8108 38.8186 16.3192 39.1007 16.4261C39.2811 15.9749 39.5373 15.4797 39.7588 15.0407L39.7588 15.0407ZM48.8601 14.1949C48.7065 14.0646 48.7063 14.0876 48.5664 14.2167C48.7031 14.4041 48.8619 14.522 48.9802 14.6653C48.8601 15.0017 48.5299 15.0197 48.6208 15.2751C48.7451 15.4898 49.0505 15.0062 49.2426 14.8829C49.4365 15.1386 49.4873 15.2878 49.8195 15.2702C49.7425 15.0055 49.5997 14.9464 49.4275 14.7411C49.6076 14.3995 49.7066 14.5 49.8175 14.1432C49.4511 14.1405 49.4431 14.3685 49.2213 14.5241C49.0653 14.4499 48.9875 14.3339 48.8601 14.1949H48.8601ZM33.1645 12.8684C32.5738 12.88 31.7787 13.2198 31.5524 13.6322L33.1593 13.6182L33.1645 12.8684ZM34.6663 13.6365C34.6318 13.2638 34.4895 13.0515 34.0343 12.9375L34.0512 13.6305L34.6663 13.6365V13.6365ZM36.6867 13.6296C36.5182 12.7569 35.3608 13.0116 35.0813 13.6324L36.6867 13.6296ZM38.9243 13.6264C39.1696 13.6346 40.0249 13.668 40.2178 13.6322C40.4645 13.5863 40.4534 13.5992 40.5036 13.3129C40.6283 12.6026 40.4271 11.3484 39.9877 10.8579C39.8546 11.047 39.0112 13.2504 38.9243 13.6264ZM23.3566 14.1007C23.6858 13.3003 24.1342 13.2491 23.7692 11.9668C23.6394 11.5108 23.014 10.3666 22.6828 10.2987L22.6804 13.9047L23.3566 14.1007V14.1007ZM28.9671 13.6235C30.2071 13.6916 30.5172 13.7599 30.8833 13.1446C31.2036 12.6066 31.427 12.1184 31.5321 11.405C31.7363 10.0189 31.5933 8.51709 30.9042 7.54236L29.8484 7.54085C29.7946 8.90375 30.055 10.355 29.3011 11.4914C28.6855 12.4194 29.0577 11.9008 29.0564 12.8679C29.0559 13.1606 28.9802 13.3457 28.9671 13.6235H28.9671ZM42.7831 10.4299L42.784 10.9707C43.2716 11.0253 43.7399 10.7911 43.7962 10.407L42.7831 10.4299V10.4299ZM41.2108 10.4707C40.982 10.3606 40.6707 10.4042 40.3507 10.4123C40.524 10.6394 40.9651 10.8927 41.2108 10.4707ZM42.2629 10.4049L41.6937 10.4081C41.8207 10.6855 41.9387 10.8081 42.2749 10.8764L42.2629 10.4049ZM44.1196 10.4172C44.3181 10.8087 45.1262 11.0678 45.2424 10.4049L44.1196 10.4172ZM23.4299 10.2807C23.9519 10.832 24.97 10.9344 25.1973 10.2653L23.4299 10.2807ZM25.9693 10.2774C26.3096 10.5665 27.4343 10.9174 27.633 10.2695L25.9693 10.2774ZM42.2741 8.41103C41.9857 8.54136 40.6159 9.80985 40.4388 10.0879L42.2722 10.0952L42.2741 8.41103ZM44.6684 10.0976C44.4857 9.78412 44.015 9.46731 43.7355 9.20234C43.5663 9.04192 43.0023 8.505 42.7784 8.4582L42.7797 10.093L44.6684 10.0976V10.0976ZM25.4293 8.58593C25.0778 8.66167 24.0992 9.60783 23.8172 9.87191L25.4252 9.85807L25.4293 8.58593ZM27.2425 9.88048C27.1273 9.65216 25.9627 8.66882 25.7329 8.60538L25.7371 9.8735L27.2425 9.88052V9.88048ZM33.3401 7.53769L31.5653 7.54942C31.8689 7.96762 32.7321 8.06207 33.3406 8.09097L33.3401 7.53773V7.53769ZM33.8461 8.05647C34.233 8.04681 34.7822 7.85324 34.9256 7.5469L33.8334 7.56188L33.8461 8.05651V8.05647ZM35.3038 7.54179C35.4355 7.85717 35.578 7.90438 36.0093 7.90142C36.3631 7.89894 36.5598 7.86257 36.681 7.54163L35.3038 7.54179ZM39.4129 10.246C39.5197 9.84598 39.6158 10.1644 39.1064 9.47604L38.0234 8.01402C37.7479 7.60978 37.824 7.53509 37.1741 7.53939C37.3369 7.99758 37.7034 8.34556 37.8964 8.89073C38.7782 11.3805 37.5068 12.5992 37.1194 13.6348L38.5613 13.6216C38.8998 13.1922 39.5106 11.1392 39.7457 10.4707C39.4338 10.2782 39.5194 10.5833 39.4129 10.246ZM39.9877 10.0678C40.3674 9.66754 40.804 9.29228 41.2104 8.915C41.8289 8.34069 42.2684 8.05883 42.2676 7.53895L38.0914 7.53741C38.1989 7.82182 39.6986 9.81679 39.9877 10.0678ZM28.8772 11.5421C29.8237 10.3773 29.6361 8.99837 29.6191 7.53895L27.8561 7.56769C28.0427 7.91453 28.1252 7.83534 28.2374 8.16789L25.8339 8.18267C26.2045 8.47338 27.6017 9.78907 27.913 9.86233C28.5301 10.0077 28.9521 9.59562 28.9548 10.171C28.7854 10.3016 28.624 10.2649 28.3721 10.2698L28.8772 11.5421V11.5421ZM33.3383 5.17542C33.1085 5.33895 31.828 6.90452 31.5381 7.24081L33.3358 7.25047L33.3384 5.17542H33.3383ZM33.8343 5.17947L33.8541 7.24264L35.8261 7.21593L33.8344 5.17947H33.8343ZM26.7591 7.13804C26.9935 7.0368 26.9805 6.95895 27.194 6.77808L26.9914 6.5947C26.8576 6.80341 26.7898 6.90773 26.5501 7.01606C26.2155 6.87927 26.2982 6.6971 26.0246 6.60635C25.9204 6.75783 25.8087 6.82951 26.3597 7.14486C26.0602 7.8243 25.9633 7.30742 25.9619 7.84654C26.2716 7.80648 26.2668 7.62191 26.5501 7.46292C26.7946 7.61225 26.8275 7.75322 27.1051 7.86213C27.093 7.42956 26.9192 7.58798 26.759 7.13808L26.7591 7.13804ZM44.3415 7.1578C44.4681 6.8511 44.1669 6.74163 43.9824 6.47999C44.2046 6.36 44.4255 6.19021 44.3619 5.87917C44.0455 6.04458 44.0608 6.16245 43.8162 6.29855C43.397 6.0954 43.6485 5.94838 43.2479 5.92309C43.1936 6.2569 43.3511 6.28325 43.6108 6.50004C43.378 6.84964 43.1644 6.86482 43.2805 7.12119C43.4413 7.11924 43.5172 6.93606 43.8162 6.7735C44.0625 6.93565 44.1428 7.07577 44.3415 7.1578H44.3415ZM33.3292 1.85383C33.0179 2.14568 30.041 7.01188 29.9271 7.24101C30.6507 7.25445 30.9378 7.35045 31.2384 7.05507C31.7151 6.55589 32.6023 5.45845 33.0008 5.07552C33.2274 4.85776 33.2292 4.8951 33.3386 4.57992C33.0622 4.50101 33.1148 4.5317 32.9842 4.32736C33.092 4.11686 33.1507 4.08902 33.34 3.95276L33.3292 1.85383ZM37.4058 7.22742C37.1833 6.77784 35.077 4.11715 34.6483 3.44887L33.8416 3.46299L33.8473 3.9528C34.1173 4.10761 34.0961 4.04753 34.216 4.3274C34.0491 4.57468 33.9862 4.50762 33.842 4.70197C34.3826 5.42829 35.1321 6.02002 35.7621 6.67068C36.2572 7.19515 36.1982 7.34387 37.4058 7.22742H37.4058ZM35.3822 2.95379C35.4046 2.59761 35.4605 2.88986 34.9893 2.37948C35.1818 2.05305 35.4896 2.07838 35.3271 1.7267C35.1536 1.85452 34.9766 2.02821 34.8078 2.14263C34.5274 2.01623 34.5214 1.79181 34.2546 1.75382C34.1588 2.14284 34.3265 1.88095 34.6046 2.37948C34.177 2.9095 34.1986 2.53092 34.2153 2.96702C34.6214 2.95415 34.4162 2.7937 34.8079 2.58405C35.0881 2.76289 35.1185 2.95488 35.3822 2.95379H35.3822ZM24.5167 25.8974C24.2443 25.8936 24.2548 25.9326 24.0893 25.8202C23.9266 25.6817 23.6799 24.5508 23.6576 24.379C25.156 23.7578 23.8617 22.0489 23.1394 21.2925C22.6843 20.8159 22.6691 21.0749 22.4721 20.3091L21.3666 16.4636C21.0689 15.2526 20.8285 15.9957 20.9331 15.2742C21.3379 15.1393 21.232 15.118 21.6389 15.2913C21.7433 15.8403 21.349 15.6534 21.7456 16.339L22.4831 16.3269L22.4836 14.4292C21.7008 13.9859 21.8209 13.9736 21.8268 13.6039L22.4833 13.7758L22.4697 10.2723C21.9266 10.255 21.9334 10.4107 21.9779 9.88174C23.2319 9.87674 23.2587 9.95825 23.997 9.27053L25.4274 8.08781L25.4308 5.3586C24.567 4.90541 25.6243 4.3121 25.9555 4.88248C26.0878 5.19583 25.8489 5.20066 25.7665 5.41181C25.685 5.62045 25.7315 5.94407 25.7509 6.19675L28.3586 6.19659C28.245 6.63878 28.1468 6.33946 27.6765 7.24524L29.4796 7.24662C30.4624 5.72318 31.8369 3.68084 32.7419 2.19232C33.1521 1.5177 33.5973 1.16794 33.1697 0.421808C32.9354 -0.0416924 33.5086 -0.0866258 33.9152 0.110684C33.9406 0.819593 33.562 0.201281 33.666 1.29758L36.8486 1.3053C36.6203 1.82173 36.5344 1.53467 36.1091 2.37952L36.4187 2.93017C36.59 3.15881 36.667 2.98821 36.8465 3.44822L35.0434 3.45784C35.1774 3.89414 37.3496 6.57026 37.8858 7.24442L42.4897 7.24934L42.4946 4.92676C42.4442 4.59453 42.3287 4.87204 42.2357 4.47722C42.5409 4.1659 42.754 4.17312 43.0594 4.47722C42.9885 4.72945 43.0273 4.564 42.9183 4.70307C42.6972 4.98484 42.7641 4.90642 42.7665 5.53586L45.8255 5.54824C45.7703 5.6912 45.3178 6.31929 45.1312 6.50008C45.4245 7.02889 45.742 7.28136 45.8234 7.54447L42.7833 7.57247C42.7796 7.91282 42.8376 7.95662 43.0548 8.15653C43.6945 8.73413 44.2802 9.22194 44.9279 9.81147C45.3923 10.2343 45.4265 10.0696 46.0064 10.0894C46.3168 10.1 46.2725 10.037 46.3493 10.2052C46.4851 10.5029 45.979 10.405 45.7504 10.4129C45.8126 10.7472 45.9433 11.1341 46.0593 11.4472C46.4418 12.4798 45.8324 12.7369 47.4223 12.6261C47.878 12.5944 47.9084 12.2175 48.3031 12.503C48.6822 12.86 48.1548 12.6949 48.2246 13.7864L50.8485 13.7978C50.8138 13.9289 50.3866 14.4954 50.2526 14.7412C50.4409 15.0596 50.7316 15.3152 50.8605 15.6382L48.2372 15.6354C48.1386 16.4276 48.1454 16.7087 48.4251 17.1386C48.2556 17.4593 46.6346 19.0905 46.1316 19.6021C45.8798 19.8582 45.8644 19.7641 45.9186 20.14C46.0904 21.3304 45.5314 21.6864 44.6784 22.6451C44.0931 23.3137 43.4737 23.9675 42.9815 24.6991C42.4116 25.5461 42.6673 25.2655 42.3149 25.8917C34.2626 25.8975 32.8455 26.0137 24.5167 25.8974H24.5167Z" fill="#292F36"/>
</svg>
