<svg width="155" height="45" viewBox="0 0 155 45" fill="none" xmlns="http://www.w3.org/2000/svg">
<path d="M6.18533 31.2035L4.9845 30.6786L9.97481 30.0673C10.0611 30.2112 10.1474 30.3406 10.2481 30.47L6.18533 31.2035ZM19.5887 31.2035L20.7968 30.6426L15.8352 30.053C15.7921 30.2112 15.6626 30.3406 15.5691 30.4772L19.5887 31.2035ZM18.8625 31.2826L17.3524 31.7859L15.2024 31.1316L15.0155 31.074C15.0874 31.0165 15.1449 30.959 15.2024 30.8871C15.2959 30.8152 15.3678 30.7145 15.4469 30.6426L18.8625 31.2826ZM22.8533 29.8732L21.4727 30.5132L15.9574 29.8732C16.0006 29.7438 16.0437 29.6143 16.0869 29.4777L22.8533 29.8732ZM23.3494 29.6862L25.1471 28.5429H15.3966C15.3966 28.9528 15.339 29.298 15.2024 29.6C14.8285 30.5707 13.8865 31.0381 12.9446 31.0237C12.017 30.9949 11.075 30.5204 10.6507 29.6287C10.5069 29.3051 10.4206 28.9672 10.4206 28.5429H0.626953L2.41024 29.6862L9.88853 29.2979C10.0323 29.83 10.2984 30.2974 10.6435 30.6426C11.2404 31.2682 12.0961 31.6133 12.9374 31.6133C13.7643 31.6277 14.6056 31.3257 15.1952 30.657C15.5188 30.3118 15.7633 29.8588 15.9071 29.3195L23.3494 29.6862ZM15.2024 32.6488L15.3966 33.0011L15.2024 33.0874L14.6991 33.3175L14.1166 32.167C13.7499 32.2964 13.3472 32.3683 12.9446 32.3827C12.5059 32.3971 12.0529 32.3396 11.6646 32.2101L11.1757 33.3175C11.0175 33.3319 10.7945 33.3175 10.6507 33.2096C10.5788 33.1665 10.5069 33.0946 10.4782 32.9939L10.6507 32.6991L11.075 31.9441C10.9456 31.8578 10.8305 31.8003 10.7083 31.6852L11.0606 31.261C11.6574 31.6277 12.3118 31.8219 12.9517 31.8219C13.5917 31.8362 14.2245 31.6349 14.8213 31.2106L15.2096 31.3257L15.375 31.3832C15.3175 31.4264 15.2743 31.4695 15.2096 31.5127C15.0946 31.6277 14.9939 31.7428 14.8069 31.8434L15.2024 32.6488ZM15.2024 26.7093C15.5835 27.1552 15.8568 27.716 16.0078 28.3488H15.3822C15.339 28.1618 15.2815 27.9677 15.2024 27.7951C14.7854 26.6949 13.9297 25.9112 12.9446 25.2568C12.8151 25.1849 12.7001 25.0986 12.5635 25.0267C12.6929 25.0699 12.8079 25.113 12.9446 25.1562C13.8362 25.5229 14.6344 26.0118 15.2024 26.7093ZM13.5198 30.808C13.6852 30.7792 13.9297 30.6929 14.1166 30.5419L13.1243 28.5861L14.1526 28.0899L13.2825 27.3349L12.9374 27.4931L11.4417 28.1762L11.8803 29.1613L12.585 28.8449L13.5198 30.808ZM10.8161 31.0812C10.7586 31.0381 10.7011 30.9806 10.6435 30.9374C10.5285 30.8367 10.4206 30.7361 10.3559 30.6354L6.94035 31.2826L8.39287 31.7715L10.8161 31.0812ZM9.88853 29.8732C9.831 29.7438 9.78786 29.6143 9.74471 29.4777L2.92077 29.8732L4.30138 30.5419L9.88853 29.8732Z" fill="#292F36"/>
<path d="M52.7537 41.0616C55.0044 41.4139 59.3116 41.9748 64.5967 42.0898C69.8675 42.2192 76.0586 41.9172 81.9118 41.04C87.765 40.1915 93.2515 38.7606 97.1489 37.2218C101.075 35.7405 103.268 33.9429 103.261 33.9357C103.282 33.9429 100.996 36.0281 96.8397 37.8186C92.7266 39.6738 86.9165 41.457 80.7901 42.6075C74.678 43.794 68.264 44.3333 63.0507 44.362C57.8375 44.4196 53.782 43.9522 52.3654 43.7293C47.4614 42.9958 43.8948 41.7087 41.7232 40.4647C39.5301 39.2136 38.7966 38.0846 39.0267 37.8617C39.2712 37.6029 40.3642 38.1278 42.5789 38.8109C44.7864 39.5156 48.1589 40.3784 52.7537 41.0616Z" fill="#292F36"/>
<path d="M146.483 4.00149L145.649 4.10935L145.11 4.15968C144.103 4.24597 142.586 4.3754 141.248 5.23108C139.918 6.07957 138.401 7.84846 137.336 9.20749C125.81 11.1418 119.489 17.9656 115.304 22.4957L112.68 25.5517L113.118 25.4151C120.978 18.167 127.981 14.2913 134.539 13.565L134.64 13.5578L135.51 12.4145L137.351 10.0056C138.106 9.32254 139.156 9.08525 140.695 8.90548L143.384 8.73291L146.562 8.51C148.381 8.26552 149.942 7.84847 152.085 4.90751L155.004 0.967053L154.659 0.672241C151.984 3.32558 149.064 3.6851 146.483 4.00149ZM146.541 4.4545C148.777 4.18125 151.258 3.78577 153.652 2.03845C152.789 3.20333 151.725 4.64145 151.725 4.64145C149.683 7.44579 148.281 7.82689 146.512 8.06418L143.369 8.2799L140.651 8.45248C139.501 8.58191 138.667 8.82639 137.933 9.19311C138.954 7.90599 140.313 6.3672 141.5 5.60499C142.744 4.81403 144.189 4.69179 145.153 4.6055L145.714 4.54798C145.706 4.55517 146.541 4.4545 146.541 4.4545ZM136.984 9.75397C136.776 10.02 135.158 12.1413 135.158 12.1413C135.158 12.1413 134.496 13.0113 134.396 13.1336C128.794 13.7807 122.876 16.7001 116.412 21.9708C120.496 17.5917 126.55 11.6379 136.984 9.75397Z" fill="#292F36"/>
<path d="M112.974 25.2641C121.308 19.1737 125.795 16.7505 135.697 16.6642L133.561 19.5404C133.159 20.3961 132.533 20.353 131.879 20.317C124.796 20.2595 119.856 20.7916 111.256 27.033L112.974 25.2641Z" fill="#292F36"/>
<path d="M112.975 25.2496C121.366 17.5053 128.37 14.0251 134.525 13.3419C135.072 12.6229 136.948 10.2068 137.524 9.40149C123.48 11.6953 117.275 21.1941 112.975 25.2496Z" fill="#292F36"/>
<path d="M113.4 24.8111C113.234 24.9693 112.652 25.5949 112.486 25.7459C117.412 22.1146 121.532 18.3395 131.8 16.9374C132.311 16.3549 133.807 14.3919 134.511 13.3492C125.156 14.6148 119.03 19.8424 113.4 24.8111Z" fill="#292F36"/>
<path d="M133.382 19.8712C133.476 19.5548 133.692 19.3175 132.656 18.7063C131.434 17.9873 131.009 18.2893 131.283 17.5558C131.484 17.0021 134.116 15.8876 136.036 16.5419C136.029 16.5348 134.324 18.5122 133.382 19.8712Z" fill="#292F36"/>
<path d="M140.751 8.49549C138.831 8.75435 137.623 9.22893 136.854 10.1997L134.172 13.7878C134.754 13.2629 136.523 13.0112 138.436 12.9609L138.702 12.968C138.781 12.9609 138.867 12.968 138.946 12.9609C139.22 12.9537 139.5 12.9393 139.802 12.9321C142.52 12.8242 146.288 12.4431 148.488 9.87608L151.789 5.31724L152.184 4.77075C149.323 8.54582 142.786 8.22224 140.751 8.49549Z" fill="#292F36"/>
<path d="M142.347 12.4864C140.291 12.774 137.932 12.8603 137.256 12.8963C136.098 12.9466 134.567 13.3133 134.143 13.8311C132.848 15.4418 131.611 16.9374 131.273 17.5558C132.064 16.8224 134.667 16.9087 137.817 16.7576C140.974 16.6138 144.166 15.2476 146.683 12.3786L148.596 9.73242C147.316 11.3719 145.065 12.1053 142.347 12.4864Z" fill="#292F36"/>
<path d="M145.68 4.33228C144.839 4.44733 142.947 4.41857 141.373 5.41807C139.798 6.42475 137.9 8.80484 136.965 10.0632C137.835 9.13561 138.985 8.86956 140.675 8.6826C142.365 8.48846 144.803 8.51722 146.536 8.28712C148.204 8.06421 149.75 7.73344 151.9 4.7781L154.819 0.837646C151.799 3.83613 148.499 3.95837 145.68 4.33228Z" fill="#292F36"/>
<path d="M21.7593 18.9077V15.8948H27.4399V14.3129H21.7593V11.5733H27.7419V9.99133H17.5527V20.5112H28.0727V18.9077H21.7593Z" fill="#292F36"/>
<path d="M34.2307 20.5112V11.5733H36.7043C37.4593 11.5733 38.1496 11.6308 38.7896 12.055C39.2498 12.3858 39.5446 12.8532 39.5446 13.4284C39.5446 13.9102 39.372 14.4135 38.732 14.8162C37.9051 15.3555 36.4526 15.4274 35.5466 15.3196L35.0289 15.2548L39.221 20.504H44.0819L40.1055 16.1177C40.8173 16.0386 41.9607 15.7582 42.651 15.3124C43.4779 14.7515 43.9021 13.9174 43.9021 13.148C43.9021 12.2779 43.4347 11.336 42.3777 10.7176C41.1193 10.0057 39.408 9.98413 37.8188 9.98413H30.0098V20.504L34.2307 20.5112Z" fill="#292F36"/>
<path d="M68.2046 14.4855V11.5733H74.3382V9.99133H63.998V20.5112H68.2046V16.0674H73.878V14.4855H68.2046Z" fill="#292F36"/>
<path d="M75.8633 9.99133V20.5112H86.2897V18.9077H80.0914V9.99133H75.8633Z" fill="#292F36"/>
<path d="M116.958 9.99133H103.662V11.5733H108.199V20.5112H112.428V11.5733H116.958V9.99133Z" fill="#292F36"/>
<path d="M94.7048 9.68201C92.7345 9.68201 89.9733 10.1278 88.1253 11.4581C86.6584 12.5007 85.9609 13.9892 85.9609 15.2619C85.9609 16.5203 86.6512 18.0087 88.1253 19.0514C89.9805 20.3601 92.7417 20.8059 94.7048 20.8059C96.6678 20.8059 99.4506 20.3601 101.306 19.0514C102.773 18.0087 103.449 16.5203 103.449 15.2619C103.449 13.9892 102.773 12.5007 101.306 11.4581C99.4578 10.1278 96.675 9.70358 94.7048 9.68201ZM94.7048 19.5259C93.6621 19.5259 92.4253 19.2958 91.5193 18.1525C90.7643 17.2249 90.6349 16.1607 90.6349 15.2547C90.6349 14.3128 90.7715 13.2701 91.5193 12.3425C92.4253 11.1848 93.6621 10.9547 94.7048 10.9547C95.7618 10.9547 96.9842 11.1848 97.9046 12.3425C98.6596 13.2701 98.7963 14.3128 98.7963 15.2547C98.7963 16.1607 98.6596 17.2249 97.9046 18.1525C96.9842 19.2958 95.769 19.5259 94.7048 19.5259Z" fill="#292F36"/>
<path d="M53.7927 9.68201C51.8224 9.68201 49.0684 10.1278 47.2132 11.4581C45.7463 12.5007 45.0488 13.9892 45.0488 15.2619C45.0488 16.5203 45.7463 18.0087 47.2132 19.0514C49.0684 20.3601 51.8224 20.8059 53.7927 20.8059C55.7629 20.8059 58.5385 20.3601 60.3937 19.0514C61.8606 18.0087 62.5365 16.5203 62.5365 15.2619C62.5365 13.9892 61.8606 12.5007 60.3937 11.4581C58.5385 10.1278 55.7557 9.70358 53.7927 9.68201ZM53.7927 19.5259C52.75 19.5259 51.5132 19.2958 50.6072 18.1525C49.8522 17.2249 49.7156 16.1607 49.7156 15.2547C49.7156 14.3128 49.8522 13.2701 50.6072 12.3425C51.5132 11.1848 52.75 10.9547 53.7927 10.9547C54.8497 10.9547 56.0721 11.1848 56.9925 12.3425C57.7475 13.2701 57.8842 14.3128 57.8842 15.2547C57.8842 16.1607 57.7475 17.2249 56.9925 18.1525C56.0721 19.2958 54.8497 19.5259 53.7927 19.5259Z" fill="#292F36"/>
<path d="M2.73382 20.5112L4.39486 17.4552H10.2481L12.0385 20.5112H16.77L10.3631 9.99133H6.43701L0.626953 20.5112H2.73382ZM5.16426 16.0314L7.15608 12.3642H7.2136L9.3708 16.0314H5.16426Z" fill="#292F36"/>
<path d="M44.9068 28.9383L43.972 32.3898C43.857 32.5265 43.6772 32.6415 43.5118 32.7278C43.2601 32.8644 43.0085 32.9363 42.7784 32.9363C42.5483 32.9363 42.3469 32.8428 42.2534 32.7062C42.1887 32.5912 42.1168 32.4114 42.2103 32.0878L43.0588 28.9312H42.1887L41.369 31.9728C41.2971 32.2532 41.182 32.7278 41.4337 33.0945C41.5703 33.303 41.8723 33.5331 42.4835 33.5331C42.7352 33.5331 42.9869 33.49 43.3105 33.3534C43.5118 33.2311 43.7419 33.1017 43.9289 32.9651L43.7922 33.4469H44.5688L45.7841 28.9383H44.9068Z" fill="#292F36"/>
<path d="M50.4721 29.4633C50.2635 29.19 50.0119 29.0534 49.9687 29.0318C49.6811 28.8736 49.3503 28.8521 49.0771 28.8521C48.7823 28.8521 48.4155 28.8808 48.0057 29.1253C47.7109 29.3338 47.3441 29.6502 47.2075 30.1823C47.0853 30.5706 47.1356 30.8654 47.2722 31.0524C47.4304 31.2609 47.7037 31.3688 47.941 31.4407L48.3724 31.5845C48.5953 31.6276 48.8326 31.6276 48.962 31.8074C49.0339 31.9009 49.1058 32.0159 49.0555 32.246C48.9836 32.4545 48.8542 32.5912 48.7319 32.6775C48.5737 32.8141 48.2933 32.9363 47.9122 32.9363C47.6605 32.9363 47.452 32.886 47.2507 32.7709C47.0709 32.6343 46.9271 32.5193 46.8624 32.4114L46.2871 32.9363C46.7042 33.4756 47.2075 33.5547 47.7109 33.5547C48.0488 33.5547 48.7391 33.5116 49.3144 33.0729C49.6308 32.7997 49.8609 32.4545 49.9543 32.1525C49.9975 31.9224 50.0478 31.5845 49.9328 31.3688C49.7674 31.0524 49.4079 30.9158 49.1993 30.8654L48.8757 30.7719C48.4659 30.6785 48.2861 30.6353 48.1926 30.5203C48.1063 30.4556 48.0344 30.3189 48.1063 30.0385C48.1495 29.9235 48.243 29.7365 48.4227 29.5999C48.6528 29.4633 48.8614 29.4417 49.0196 29.4417C49.2281 29.4417 49.4079 29.492 49.5661 29.5999C49.7027 29.6934 49.8177 29.8084 49.9112 29.9235L50.4721 29.4633Z" fill="#292F36"/>
<path d="M55.1687 29.4633C54.9818 29.19 54.7373 29.0534 54.6654 29.0318C54.3921 28.8736 54.0686 28.8521 53.7953 28.8521C53.4789 28.8521 53.1338 28.8808 52.7167 29.1253C52.4219 29.3338 52.0552 29.6502 51.8898 30.1823C51.8035 30.5706 51.8466 30.8654 51.9833 31.0524C52.1415 31.2609 52.4435 31.3688 52.6448 31.4407L53.0547 31.5845C53.2848 31.6276 53.5149 31.6276 53.6731 31.8074C53.745 31.9009 53.8097 32.0159 53.745 32.246C53.6731 32.4545 53.5436 32.5912 53.443 32.6775C53.2848 32.8141 53.0115 32.9363 52.6232 32.9363C52.3716 32.9363 52.1702 32.886 51.9401 32.7709C51.7532 32.6343 51.6381 32.5193 51.5518 32.4114L50.9766 32.9363C51.4152 33.4756 51.9185 33.5547 52.4219 33.5547C52.767 33.5547 53.4502 33.5116 54.0254 33.0729C54.349 32.7997 54.5719 32.4545 54.6438 32.1525C54.7157 31.9224 54.7373 31.5845 54.6222 31.3688C54.4856 31.0524 54.1189 30.9158 53.8888 30.8654L53.5652 30.7719C53.1769 30.6785 52.9971 30.6353 52.9037 30.5203C52.8174 30.4556 52.7455 30.3189 52.8174 30.0385C52.8605 29.9235 52.9324 29.7365 53.141 29.5999C53.3495 29.4633 53.5724 29.4417 53.709 29.4417C53.9391 29.4417 54.1189 29.492 54.2843 29.5999C54.4209 29.6934 54.5359 29.8084 54.6294 29.9235L55.1687 29.4633Z" fill="#292F36"/>
<path d="M56.8544 28.9384L56.689 29.528H57.2139L56.1641 33.4397H57.0269L58.2422 28.9312H56.8544V28.9384ZM57.4009 27.4499C57.3289 27.7663 57.5159 28.018 57.8179 28.018C58.1343 28.018 58.4291 27.7663 58.5226 27.4499C58.6089 27.1479 58.4291 26.8962 58.1127 26.8962C57.8179 26.9034 57.4943 27.1479 57.4009 27.4499Z" fill="#292F36"/>
<path d="M65.3499 33.4468L66.3135 29.9019C66.6155 29.6502 67.0685 29.4417 67.4783 29.4417C67.7732 29.4417 67.9386 29.5567 68.0033 29.6934C68.1399 29.9019 68.0752 30.2398 68.0248 30.3837L67.2051 33.454H68.0752L68.8949 30.4556C68.9884 30.0888 69.0315 29.6502 68.823 29.2907C68.6361 28.9959 68.2981 28.8521 67.8163 28.8521C67.5215 28.8521 67.0182 28.924 66.4645 29.2907L66.5579 28.9527H65.1558L64.9976 29.5424H65.5225L64.4727 33.454L65.3499 33.4468Z" fill="#292F36"/>
<path d="M36.7246 26.9465L34.9629 33.4468H35.948L36.7102 30.5922H37.3718L38.2922 33.4468H38.3641H39.4786L38.4288 30.5418C38.9106 30.4915 39.5505 30.2686 39.9388 29.9666C40.3703 29.643 40.6939 29.19 40.8017 28.7082C40.9383 28.248 40.8736 27.7734 40.6004 27.4571C40.2336 26.9969 39.5002 26.9537 38.9753 26.9537H38.3569H36.7246V26.9465ZM38.3497 29.8515C38.2778 29.8515 38.2346 29.8515 38.1915 29.8515H36.9116L37.4868 27.7015H38.3569H38.7955C38.9321 27.7015 39.3636 27.7015 39.5937 27.9316C39.7303 28.0683 39.8454 28.2984 39.7519 28.6651C39.6584 29.0102 39.4786 29.2835 39.2054 29.5136C38.8962 29.7365 38.5798 29.83 38.3497 29.8515Z" fill="#292F36"/>
<path d="M61.1148 30.8152C60.2016 30.9087 59.4465 31.2754 59.1949 32.2174C59.1733 32.3252 59.1445 32.4187 59.1445 32.5122V32.6704C59.1661 33.1737 59.5113 33.5404 60.2663 33.5404C60.5395 33.5404 60.8128 33.4973 61.1148 33.3751C61.1435 33.3751 61.1579 33.3607 61.2011 33.3319C61.5031 33.1953 61.726 32.9652 61.7979 32.8933H61.841L61.6828 33.4398H62.4594L63.2576 30.5348C63.3726 30.0746 63.4877 29.6215 63.2288 29.2764C63.0203 28.9528 62.4954 28.8378 62.0855 28.8378C61.69 28.8378 61.3521 28.8881 61.1004 28.9528C60.3022 29.1542 60.0002 29.6359 59.9787 30.0746L60.784 30.1177C60.8487 29.8876 60.9422 29.7294 61.1004 29.6144C61.2873 29.4777 61.5606 29.4346 61.9057 29.4346C62.0927 29.4346 62.3156 29.4562 62.4091 29.6144C62.5529 29.7725 62.5026 30.0026 62.4594 30.2112L62.3012 30.7792H61.6613C61.4815 30.7936 61.273 30.7936 61.1148 30.8152ZM61.1148 32.8717C60.9782 32.922 60.8415 32.9436 60.6977 32.9436C60.518 32.9436 60.2878 32.922 60.1512 32.7351C60.0362 32.5769 60.0146 32.4187 60.0793 32.1886C60.1225 32.0088 60.2159 31.8219 60.446 31.6421C60.5827 31.5486 60.7696 31.4336 61.1076 31.3904C61.2226 31.3617 61.3593 31.3401 61.5246 31.3401H62.1646L61.9129 32.2965C61.7763 32.4834 61.6397 32.5913 61.4743 32.7063C61.3449 32.7854 61.2298 32.8501 61.1148 32.8717Z" fill="#292F36"/>
<path d="M82.0184 28.9384L81.8602 29.528H82.3852L81.3281 33.4397H82.1982L83.4134 28.9312H82.0184V28.9384ZM82.8238 27.4499C82.7519 27.7663 82.9388 28.018 83.2336 28.018C83.5285 28.018 83.852 27.7663 83.9383 27.4499C84.0318 27.1479 83.8449 26.8962 83.5285 26.8962C83.2336 26.9034 82.9101 27.1479 82.8238 27.4499Z" fill="#292F36"/>
<path d="M85.3402 28.9383L84.125 33.4468H84.9951L85.6854 30.8582C85.8004 30.5634 85.9083 30.2614 86.0737 30.0385C86.3469 29.5999 86.6633 29.5352 86.8503 29.5352C86.9653 29.5352 87.1019 29.5567 87.1954 29.6502C87.2601 29.7221 87.2889 29.8515 87.2889 30.0169L88.0655 29.7868C88.2237 29.3338 88.0655 29.075 87.7922 28.9455C87.6484 28.8736 87.4902 28.8521 87.332 28.8521C86.8287 28.8521 86.3253 29.1253 85.9802 29.6071L86.16 28.9455L85.3402 28.9383Z" fill="#292F36"/>
<path d="M90.1517 26.853L88.7136 32.21C88.5985 32.6199 88.39 33.4468 89.4255 33.4468H89.9288L90.087 32.8572H89.8353C89.4039 32.8572 89.5118 32.4905 89.5333 32.397L91.0218 26.8602H90.1517V26.853Z" fill="#292F36"/>
<path d="M92.5016 28.9384L92.3506 29.528H92.8755L91.7969 33.4397H92.6885L93.9037 28.9312H92.5016V28.9384ZM93.3069 27.4499C93.235 27.7663 93.422 28.018 93.7168 28.018C94.0404 28.018 94.3352 27.7663 94.4287 27.4499C94.5006 27.1479 94.3136 26.8962 94.0188 26.8962C93.6952 26.9034 93.4004 27.1479 93.3069 27.4499Z" fill="#292F36"/>
<path d="M95.7048 33.4468L96.6395 29.9019C96.9631 29.6502 97.4161 29.4417 97.826 29.4417C98.128 29.4417 98.2862 29.5567 98.3509 29.6934C98.5091 29.9019 98.3941 30.2398 98.3725 30.3837L97.5528 33.454H98.4156L99.2426 30.4556C99.3361 30.0888 99.3792 29.6502 99.1707 29.2907C98.9909 28.9959 98.6458 28.8521 98.164 28.8521C97.8404 28.8521 97.3802 28.924 96.8121 29.2907L96.9056 28.9527H95.5106L95.3452 29.5424H95.8702L94.8203 33.454H95.7048V33.4468Z" fill="#292F36"/>
<path d="M109.139 29.4633C108.959 29.19 108.729 29.0534 108.657 29.0318C108.362 28.8736 108.067 28.8521 107.794 28.8521C107.47 28.8521 107.133 28.8808 106.723 29.1253C106.399 29.3338 106.032 29.6502 105.896 30.1823C105.773 30.5706 105.853 30.8654 105.982 31.0524C106.119 31.2609 106.421 31.3688 106.622 31.4407L107.053 31.5845C107.276 31.6276 107.514 31.6276 107.643 31.8074C107.737 31.9009 107.787 32.0159 107.737 32.246C107.672 32.4545 107.535 32.5912 107.413 32.6775C107.276 32.8141 107.003 32.9363 106.586 32.9363C106.327 32.9363 106.147 32.886 105.917 32.7709C105.738 32.6343 105.601 32.5193 105.529 32.4114L104.961 32.9363C105.371 33.4756 105.881 33.5547 106.377 33.5547C106.744 33.5547 107.406 33.5116 107.981 33.0729C108.305 32.7997 108.528 32.4545 108.621 32.1525C108.693 31.9224 108.714 31.5845 108.599 31.3688C108.456 31.0524 108.067 30.9158 107.866 30.8654L107.542 30.7719C107.161 30.6785 106.974 30.6353 106.859 30.5203C106.787 30.4556 106.701 30.3189 106.766 30.0385C106.809 29.9235 106.874 29.7365 107.089 29.5999C107.312 29.4633 107.542 29.4417 107.686 29.4417C107.916 29.4417 108.074 29.492 108.254 29.5999C108.369 29.6934 108.484 29.8084 108.578 29.9235L109.139 29.4633Z" fill="#292F36"/>
<path d="M74.2949 33.4468H75.28L76.2652 31.8649H78.7603L78.8754 33.4468H79.9971L79.3787 26.9465H78.5734L74.2949 33.4468ZM76.7182 31.1099L78.4799 28.3415H78.5015L78.71 31.1099H76.7182Z" fill="#292F36"/>
<path d="M101.477 31.3903H104.195L104.267 31.0955C104.447 30.4915 104.626 29.8803 104.31 29.3769C104.037 28.9455 103.483 28.8448 103.095 28.8448C102.512 28.8448 101.959 29.0534 101.52 29.4417C100.923 29.9666 100.679 30.6784 100.535 31.2753C100.398 31.757 100.254 32.4905 100.621 33.0154C100.966 33.4684 101.585 33.5403 102.016 33.5403C102.369 33.5403 102.692 33.49 103.03 33.3749C103.21 33.3102 103.44 33.2167 103.641 33.1017L103.512 32.5768C103.303 32.6703 103.145 32.735 102.915 32.7853C102.699 32.8213 102.498 32.8716 102.275 32.8716C101.937 32.8716 101.635 32.7565 101.477 32.5552C101.225 32.2604 101.34 31.793 101.412 31.5701L101.477 31.3903ZM101.613 30.7935L101.657 30.5922C101.75 30.3621 101.865 29.9953 102.16 29.7365C102.354 29.5495 102.649 29.4417 102.915 29.4417C103.145 29.4417 103.368 29.5136 103.49 29.6502C103.692 29.9234 103.598 30.3117 103.512 30.6137L103.461 30.7935H101.613Z" fill="#292F36"/>
</svg>
