<svg width="118" height="57" viewBox="0 0 118 57" fill="none" xmlns="http://www.w3.org/2000/svg">
<path d="M31.3654 10.4045C30.1576 5.13755 27.1411 0.856016 26.7358 0.157104C26.0802 1.13838 23.6815 4.91949 22.4458 9.11575C21.1193 13.7887 20.9264 17.9374 21.3835 22.0246C21.8406 26.1119 23.5599 30.304 23.5599 30.304C24.4797 32.5083 25.8537 34.8678 26.7456 36.0294C28.0581 34.3255 31.0732 29.2332 32.0181 22.5922C32.5451 18.9005 32.5591 15.6673 31.3654 10.4045ZM26.7344 34.7183C26.1445 33.6042 25.2233 31.4851 25.1339 28.2044C25.1059 25.037 26.3793 22.328 26.7483 21.7619C27.074 22.328 28.1783 24.6889 28.3111 27.9221C28.3866 31.0923 27.334 33.5804 26.7344 34.7183ZM31.0117 19.3394C30.974 21.3453 30.7377 23.47 30.4218 24.735C30.5392 22.5502 30.2751 19.4722 29.7662 17.0652C29.2658 14.6623 27.8498 10.6464 26.7078 8.78587C25.6594 10.5555 24.372 14.0291 23.6913 17.0414C23.0217 20.0579 22.998 23.7062 22.998 24.8007C22.8135 23.881 22.3704 20.5905 22.4976 17.286C22.601 14.5575 23.2342 11.759 23.5879 10.4702C24.9242 6.16634 26.4338 3.41403 26.7078 2.97512C26.9958 3.41403 28.8982 6.79816 29.8837 10.357C30.8649 13.9215 31.0634 17.3294 31.0117 19.3394Z" fill="#292F36"/>
<path d="M28.7644 37.2565H19.6212V43.393C19.6352 43.3832 19.6492 43.3734 19.6492 43.3692C21.8018 41.2166 25.3034 41.2166 27.4518 43.3692C29.6045 45.5261 29.6045 49.0192 27.4518 51.1719C27.4379 51.1816 27.4379 51.1914 27.4239 51.1956V51.1998C27.4099 51.2096 27.3959 51.2194 27.3861 51.2278C25.2475 53.3609 22.4309 54.4274 19.6212 54.4274C16.8032 54.4274 13.981 53.3511 11.8284 51.1984C8.04307 47.4033 7.59437 41.5409 10.4781 37.2551C10.8695 36.675 11.3182 36.1271 11.8284 35.6127C13.981 33.46 16.799 32.3837 19.6212 32.3837V17.6311C8.78951 17.6311 0 26.4192 0 37.2565C0 48.0939 8.78811 56.8778 19.6212 56.8778C25.2754 56.8778 30.3635 54.4889 33.9461 50.6658V37.2565H28.7644ZM45.5439 53.3804C45.5439 54.7545 45.3733 56.882 42.6168 56.882H39.3641C36.6216 56.882 36.4524 54.7531 36.4524 53.3804V40.7637C36.4524 39.3896 36.623 37.2565 39.3641 37.2565H42.6168C45.3733 37.2565 45.5439 39.3854 45.5439 40.7637V43.5384H41.6076V40.3387C41.6076 40.0033 41.3574 39.6971 40.9897 39.6971C40.7675 39.6971 40.3719 39.8341 40.3719 40.3387V53.7201C40.3719 54.2247 40.7633 54.3617 40.9897 54.3617C41.3574 54.3617 41.6076 54.0556 41.6076 53.7201V49.4246H41.0177V47.2677H45.5439V53.3804ZM51.4441 49.5098L52.1136 39.7013H52.3359L53.0152 49.5098H51.4441ZM47.101 56.882H50.9436L51.2973 51.6709H53.148L53.5156 56.882H57.3583L55.3104 37.2607H49.146L47.101 56.882ZM58.8162 54.4134L62.5833 39.7013H59.2132V37.2565H66.609V39.6971L62.8573 54.3617H66.8453V56.8778H58.8162V54.4134ZM72.6183 47.764V39.6929H73.1187C73.5534 39.6929 73.8554 40.0564 73.8554 40.6742V46.7813C73.8554 47.3991 73.5534 47.7626 73.1187 47.7626H72.6183V47.764ZM68.6806 56.882H72.6169V50.213H74.859C77.6015 50.213 77.7707 48.0841 77.7707 46.7114V40.7637C77.7707 39.3896 77.6001 37.2565 74.859 37.2565H68.6806V56.882ZM83.7142 47.1727V39.6915H84.2244C84.6452 39.6915 84.9471 40.055 84.9471 40.6728V46.19C84.9471 46.8079 84.6452 47.1713 84.2244 47.1713H83.7142V47.1727ZM89.3782 56.882L87.4478 49.2303C88.84 48.6684 88.8638 47.3796 88.8638 46.847V40.7637C88.8638 39.3896 88.7086 37.2565 85.9521 37.2565H79.7877V56.8778H83.71V49.6231H83.998L85.3343 56.882H89.3782ZM96.6469 53.7201C96.6469 54.0556 96.3966 54.3673 96.029 54.3673C95.8068 54.3673 95.4112 54.2261 95.4112 53.7201V40.3387C95.4112 39.8341 95.8026 39.6971 96.029 39.6971C96.3966 39.6971 96.6469 40.0033 96.6469 40.3387V53.7201ZM91.4931 53.3804C91.4931 54.7545 91.6636 56.882 94.4201 56.882H97.6575C100.414 56.882 100.585 54.7531 100.585 53.3804V40.7637C100.585 39.3896 100.414 37.2565 97.6575 37.2565H94.4201C91.6636 37.2565 91.4931 39.3854 91.4931 40.7637V53.3804ZM112.898 37.2621H118V56.882H114.078V44.5769H113.931L111.911 56.882H108.777L106.757 44.5769H106.611V56.882H102.688V37.2621H107.79L110.334 51.0544L112.898 37.2621Z" fill="#292F36"/>
</svg>
