<svg width="136" height="51" viewBox="0 0 136 51" fill="none" xmlns="http://www.w3.org/2000/svg">
<g clip-path="url(#clip0_13284_871)">
<path d="M128.535 14.1767C128.605 14.7376 128.925 15.2168 129.298 15.6742C129.553 15.99 130.035 16.2351 130.382 16.3766C130.414 16.6326 129.873 16.9539 129.661 17.0355C129.618 17.0519 128.437 17.4766 128.323 17.4821C127.002 17.8306 124.342 18.2662 123.595 18.2226C121.948 18.1301 119.343 16.638 118.119 16.1697C117.751 16.0663 117.264 15.8757 116.83 15.696C116.614 15.4074 116.294 15.2168 116.251 14.7539C116.63 14.193 116.781 13.4034 116.982 12.6683C117.496 12.4124 118.298 12.4341 118.693 12.053C118.764 11.1218 118.628 10.7025 118.937 9.84756C117.811 9.4555 117.913 8.12136 117.588 7.52236C117.903 7.36443 117.816 6.69466 117.48 6.60753C117.605 5.89963 117.123 5.3442 116.359 5.42043C115.991 5.06646 115.492 4.99023 115.113 5.20807C114.675 4.95756 114.052 5.12636 113.797 5.41496C113.673 5.59467 113.071 5.79616 112.784 5.9432C112.145 5.83426 111.658 6.00853 111.284 6.4006C110.623 6.2209 110.027 6.70553 110.201 7.3481C110.033 7.83277 110.266 8.20303 110.65 8.35006C110.721 8.64413 111.019 9.2867 111.36 9.29757C111.333 9.64063 111.485 9.95646 111.804 10.1089C111.544 10.6807 111.983 11.454 112.465 11.6663C112.492 12.004 112.925 12.5049 113.18 12.4777C113.18 12.445 113.185 12.4124 113.185 12.3797C113.218 12.5485 113.364 12.7391 113.689 13.1638C113.689 13.2891 113.743 13.4688 113.721 13.5722C113.7 14.6668 114.079 14.547 112.487 14.5143C109.713 14.4544 105.25 13.6594 102.97 12.0366C100.69 10.4084 98.3557 8.75303 95.8913 7.93623C96.0863 8.68223 97.2399 9.11243 97.2346 9.65153C90.5022 7.6095 89.863 6.7709 84.6039 3.5363C82.8058 2.43088 81.2133 1.46159 79.3557 0.519531C80.7529 3.49274 83.9594 4.64173 86.5592 6.4115C83.3745 5.4422 80.4279 4.22786 77.5249 2.97542C78.5487 4.64716 80.5364 5.34963 82.1667 6.4115C80.2223 6.27536 79.128 5.29516 77.1621 5.18626C77.8771 6.63476 80.1194 7.20653 80.8287 8.25206C79.8324 8.22483 78.749 7.7892 78.0178 7.88176C78.7761 9.24856 80.6718 9.47183 81.8039 10.4575C81.1051 10.3703 80.791 10.6644 80.0922 10.5827C80.3252 11.3505 81.1971 11.699 81.8039 12.053C82.4861 12.4614 83.1848 12.8208 83.878 13.1584C83.4341 13.1529 83.2011 13.2455 83.1848 13.4633C83.2553 13.9044 83.5804 14.4925 84.4685 14.9499C84.203 15.1133 84.2355 15.3692 84.3384 15.6306C84.5986 16.137 85.1997 16.4801 86.2017 16.6925C85.8442 16.7415 85.5191 17.0029 85.6707 17.4222C85.9147 17.9014 86.6025 18.5494 87.8375 18.6093C87.6532 18.838 87.675 19.0558 87.7346 19.3117C88.0159 19.8726 88.7365 19.8508 89.8143 20.036C89.6627 20.586 89.9497 20.9889 90.2095 21.1741C90.6538 21.4899 91.6991 21.9147 92.8689 21.9528C93.0476 23.9839 94.3475 22.8023 95.1654 24.1854C95.5501 24.2453 95.5987 23.9676 96.0211 24.0602C96.3028 24.4304 96.6278 24.7572 96.9963 25.0458C97.8519 24.7136 97.8357 25.3507 98.464 25.5359C99.8396 25.6067 100.825 25.6557 101.681 25.3126C103.133 24.7299 108.522 23.3795 111.382 23.7171C111.008 26.8482 106.036 26.6413 106.496 30.3442C106.55 30.7744 106.832 31.0303 106.983 31.5749C106.296 32.5169 105.776 33.3991 104.958 34.3522C103.95 35.5282 102.781 37.5485 101.611 38.3272C100.414 39.1275 99.3686 39.2202 98.2581 40.0479C96.2217 41.5672 94.9595 43.8705 92.5766 44.9542C91.9589 44.5949 91.5422 44.0339 90.5022 44.0939C89.9335 45.1175 89.8521 46.6262 89.3592 47.7205C89.1698 48.1509 88.4926 49.3379 88.3628 49.4959C88.2327 49.6592 88.1189 49.8009 88.3033 50.1055C89.1209 49.9422 90.8054 48.3905 91.1685 48.1289C91.9917 47.5355 92.9232 47.0779 93.99 46.4735C96.7199 44.9215 99.3848 43.0485 102.044 41.5889C102.645 41.2622 103.311 41.0282 103.81 40.6579C104.438 40.1895 104.909 39.5415 105.521 39.0622C107.536 37.4832 109.285 36.0672 111.138 34.4012C112.833 35.2505 114.393 35.4629 115.904 36.1219C114.349 37.1782 112.627 38.0659 110.65 38.6975C110.022 38.2619 109.459 37.2599 108.332 37.7172C107.866 38.1095 108.007 38.8065 107.845 39.4382C107.514 40.6852 106.361 41.4419 106.133 42.7542C105.814 42.9995 105.413 43.1735 105.527 43.8599C106.442 43.8325 106.485 43.3805 106.989 42.9995C107.796 42.3949 108.792 41.5835 109.919 41.1589C111.463 40.5815 113.386 40.1949 115.167 39.8082C117.524 39.2965 121.705 38.9589 122.003 36.7425C122.198 35.3049 120.448 34.1885 119.435 33.4318C117.637 32.0813 115.823 30.6491 113.819 29.5056C114.637 28.6071 114.777 27.5071 115.287 26.4398C116.018 24.8933 117.426 23.973 117.485 21.8983C117.881 21.9691 118.704 21.7676 118.98 21.0652C118.932 20.6622 118.802 20.428 118.845 19.8345C120.356 20.0741 121.84 20.3681 123.438 20.2756C125.209 20.1721 126.872 19.4043 128.621 18.9197C129.759 18.6093 131.27 18.5385 132.489 18.5657C132.862 18.3098 133.068 18.1137 133.176 17.7925C133.257 17.5692 133.333 16.7905 133.566 16.491C133.837 16.4039 134.395 16.1479 134.72 15.9247C135.061 15.647 135.706 14.7811 135.706 14.1876C135.689 14.1604 129.298 14.1712 128.535 14.1767Z" fill="#292F36"/>
<path d="M5.26262 34.0526C5.26262 34.6952 5.28431 35.1636 5.33306 35.4576C5.38179 35.7569 5.46305 35.9912 5.57679 36.1599C5.69052 36.3342 5.85841 36.4759 6.08048 36.5902C6.30256 36.7046 6.66545 36.8189 7.16372 36.9332V37.6356H0.285156V36.9332C0.956764 36.7806 1.41172 36.6119 1.6392 36.4269C1.86669 36.2416 2.01834 35.9749 2.08875 35.6319C2.15916 35.2886 2.19707 34.7606 2.19707 34.0526V21.6479C2.19707 20.989 2.16999 20.5043 2.11583 20.2048C2.06167 19.8999 1.96959 19.6712 1.84502 19.5024C1.72045 19.339 1.55255 19.2029 1.34673 19.0994C1.14091 18.9959 0.788862 18.887 0.285156 18.7618V18.0593H7.16914V18.7618C6.69252 18.8652 6.34589 18.9687 6.13464 19.0776C5.92342 19.1811 5.7555 19.3118 5.63094 19.4697C5.50638 19.6276 5.41429 19.8672 5.35471 20.183C5.29513 20.4989 5.26805 20.989 5.26805 21.6479V34.0526H5.26262Z" fill="#292F36"/>
<path d="M16.0893 29.1353V34.0146C16.0893 34.7059 16.1163 35.2016 16.1813 35.5119C16.2409 35.8222 16.333 36.0566 16.4521 36.2146C16.5713 36.3722 16.7338 36.5029 16.9396 36.6009C17.1454 36.7046 17.4975 36.8136 18.0012 36.9386V37.6412H11.1172V36.9386C11.7888 36.7862 12.2438 36.6172 12.4713 36.4322C12.6987 36.2472 12.8504 35.9802 12.9208 35.6372C12.9912 35.2942 13.0291 34.7659 13.0291 34.0579V21.6479C13.0291 20.989 13.002 20.5043 12.9479 20.2048C12.8937 19.8999 12.8016 19.6712 12.6771 19.5024C12.5525 19.339 12.3846 19.2029 12.1788 19.0994C11.9729 18.9959 11.6209 18.887 11.1172 18.7618V18.0593H19.1927C21.7384 18.0593 23.6394 18.4677 24.9014 19.2791C26.1634 20.0905 26.7917 21.3538 26.7917 23.0637C26.7917 24.376 26.38 25.4869 25.5622 26.4072C24.7389 27.322 23.5095 28.0408 21.8683 28.5581V28.6725C22.5345 28.9121 23.1032 29.2551 23.5744 29.6962C24.0457 30.1373 24.571 30.8343 25.1506 31.7709L26.6183 34.1232C27.0408 34.8149 27.4037 35.3376 27.7124 35.7026C28.0157 36.0619 28.3244 36.3396 28.644 36.5356C28.9582 36.7262 29.3752 36.8626 29.9006 36.9386V37.6412H25.3834C24.9718 37.1346 24.5764 36.5902 24.2082 36.0076C23.8398 35.4249 23.4716 34.8312 23.1141 34.2322L21.6788 31.8363C21.2455 31.1066 20.888 30.5729 20.6118 30.2299C20.3356 29.8868 20.081 29.6472 19.8427 29.5056C19.6098 29.3695 19.3606 29.2715 19.0953 29.217C18.8299 29.168 18.4291 29.1408 17.8983 29.1408H16.0893V29.1353ZM16.0893 19.3771V27.8992H17.9308C18.8786 27.8992 19.6423 27.8393 20.2273 27.7195C20.8122 27.5997 21.3592 27.371 21.8575 27.0388C22.3558 26.7067 22.7566 26.2384 23.0545 25.6394C23.3524 25.0404 23.504 24.3107 23.504 23.4394C23.504 22.53 23.3253 21.7731 22.9733 21.1687C22.6212 20.5697 22.085 20.1068 21.3646 19.791C20.6497 19.4751 19.6802 19.3172 18.4615 19.3172C17.4921 19.3227 16.7013 19.339 16.0893 19.3771Z" fill="#292F36"/>
<path d="M36.8387 34.0526C36.8387 34.6952 36.8659 35.1636 36.9145 35.4576C36.9635 35.7569 37.0446 35.9912 37.1585 36.1599C37.272 36.3342 37.4398 36.4759 37.662 36.5902C37.8841 36.7046 38.2472 36.8189 38.7454 36.9332V37.6356H31.8613V36.9332C32.5383 36.7806 32.9879 36.6119 33.2154 36.4269C33.4429 36.2416 33.5945 35.9749 33.665 35.6319C33.7352 35.2886 33.7732 34.7606 33.7732 34.0526V21.6479C33.7732 20.989 33.7461 20.5043 33.6921 20.2048C33.6379 19.8999 33.5458 19.6712 33.4211 19.5024C33.2966 19.339 33.1287 19.2029 32.9229 19.0994C32.7171 18.9959 32.365 18.887 31.8613 18.7618V18.0593H38.7454V18.7618C38.2687 18.8652 37.9221 18.9687 37.7109 19.0776C37.4994 19.1811 37.3316 19.3118 37.2071 19.4697C37.0827 19.6276 36.9903 19.8672 36.9308 20.183C36.8712 20.4989 36.8387 20.989 36.8387 21.6479V34.0526Z" fill="#292F36"/>
<path d="M42.6772 37.6412V36.9385C43.1757 36.8242 43.5328 36.7152 43.7549 36.6118C43.9718 36.5085 44.1396 36.3722 44.2587 36.2088C44.3779 36.0455 44.4646 35.8115 44.5186 35.5065C44.5729 35.2015 44.6 34.7168 44.6 34.0578V21.6478C44.6 20.978 44.5729 20.4934 44.5186 20.1939C44.4646 19.8944 44.3726 19.6602 44.2478 19.4969C44.1234 19.3389 43.9555 19.2028 43.7496 19.1048C43.5438 19.0013 43.181 18.8924 42.6719 18.7672V18.0647H49.8157C51.874 18.0647 53.5529 18.2607 54.8637 18.6583C56.1745 19.0558 57.2794 19.6439 58.1837 20.4171C59.0883 21.1904 59.76 22.1542 60.2042 23.3087C60.6481 24.4577 60.8755 25.8353 60.8755 27.4309C60.8755 29.0482 60.6643 30.4694 60.2472 31.7001C59.8305 32.9308 59.2184 33.9598 58.4114 34.7932C57.718 35.5175 56.8623 36.1162 55.8494 36.5845C55.01 36.9658 54.0457 37.2382 52.9464 37.4015C51.8468 37.5648 50.3897 37.6465 48.5754 37.6465H42.6772V37.6412ZM47.6493 36.3068C48.0879 36.3452 48.727 36.3668 49.5721 36.3668C50.4874 36.3668 51.2997 36.2962 52.0203 36.1655C52.7406 36.0292 53.3903 35.8222 53.9756 35.5338C54.5604 35.2452 55.0911 34.8475 55.5568 34.3358C56.0228 33.8238 56.4072 33.2357 56.6998 32.5714C56.9924 31.907 57.2089 31.1664 57.3442 30.3551C57.4796 29.5437 57.5501 28.6506 57.5501 27.6868C57.5501 25.7428 57.2304 24.1473 56.5968 22.9003C55.9633 21.6533 55.0639 20.7384 53.905 20.1666C52.7458 19.5949 51.3592 19.3063 49.7562 19.3063C49.014 19.3063 48.3156 19.3226 47.6493 19.3607V36.3068Z" fill="#292F36"/>
<path d="M74.8286 37.6412V36.9385C75.3701 36.8405 75.7763 36.7372 76.0418 36.6229C76.3072 36.5085 76.5075 36.3452 76.6376 36.1435C76.7673 35.9422 76.8325 35.6645 76.8325 35.3212C76.8325 34.9945 76.7892 34.6462 76.7025 34.2649C76.6157 33.8892 76.4913 33.4644 76.3287 32.9961L75.7276 31.1447H68.1233L67.5652 32.5496C67.2835 33.2575 67.0995 33.7966 67.0128 34.1559C66.9264 34.5209 66.883 34.8475 66.883 35.1472C66.883 35.7189 67.0508 36.1435 67.3812 36.4105C67.7115 36.6772 68.2206 36.8515 68.9085 36.9385V37.6412H61.9434V36.9385C62.5501 36.8515 63.0807 36.5412 63.5358 36.0075C63.9854 35.4739 64.424 34.7115 64.8463 33.7149L71.6436 17.8306H74.2219L79.7679 33.8238C80.0281 34.5699 80.2608 35.1415 80.4614 35.5335C80.6617 35.9259 80.9053 36.2305 81.187 36.4539C81.4687 36.6719 81.8533 36.8352 82.3406 36.9385V37.6412H74.8286ZM68.5619 29.8922H75.3811L72.2828 20.6404L68.5619 29.8922Z" fill="#292F36"/>
<path d="M2.48413 44.9978H1.71503V48.4502H0.718453V44.9978H0.285156V44.0938H0.718453V42.5365H1.72045V44.0938H2.48413V44.9978Z" fill="#292F36"/>
<path d="M4.67773 48.4502V44.0939H5.6797V44.4859C5.80969 44.3226 5.96136 44.1919 6.14011 44.1049C6.31882 44.0176 6.50839 43.9742 6.70878 43.9742C6.83877 43.9742 6.97961 43.9959 7.12043 44.0449C7.26667 44.0939 7.39665 44.1539 7.52121 44.2302L7.07167 45.1449C6.98501 45.0849 6.89296 45.0359 6.79544 44.9979C6.69796 44.9599 6.60047 44.9379 6.50299 44.9379C6.35132 44.9379 6.22134 44.9706 6.11842 45.0306C6.01012 45.0906 5.92346 45.1776 5.85845 45.2809C5.79347 45.3792 5.75014 45.4936 5.72303 45.6296C5.69596 45.7656 5.68513 45.9509 5.68513 46.1796V48.4449H4.67773V48.4502Z" fill="#292F36"/>
<path d="M12.8121 44.0938H13.8141V48.4502H12.8121V47.9982C12.6443 48.1998 12.4493 48.3522 12.2272 48.4448C12.0106 48.5428 11.7668 48.5865 11.496 48.5865C10.8623 48.5865 10.3532 48.3575 9.96867 47.8948C9.5841 47.4318 9.39453 46.8928 9.39453 46.2665C9.39453 45.6458 9.5841 45.1122 9.95781 44.6548C10.3316 44.1975 10.8461 43.9685 11.5014 43.9685C11.7831 43.9685 12.0322 44.0232 12.2489 44.1375C12.4655 44.2465 12.6497 44.4042 12.8013 44.6002V44.0938H12.8121ZM11.6585 44.8835C11.2902 44.8835 10.9977 45.0195 10.7757 45.2918C10.5536 45.5642 10.4399 45.8962 10.4399 46.2885C10.4399 46.6858 10.5482 47.0125 10.7648 47.2795C10.9815 47.5462 11.2794 47.6768 11.6585 47.6768C12.0322 47.6768 12.3301 47.5462 12.5468 47.2905C12.7634 47.0345 12.8772 46.6915 12.8772 46.2775C12.8717 45.8365 12.7472 45.4935 12.5143 45.2482C12.2759 45.0032 11.9889 44.8835 11.6585 44.8835Z" fill="#292F36"/>
<path d="M16.0293 44.0939H17.1613L18.2716 46.5772L19.3819 44.0939H20.5139L18.2662 48.7442L16.0293 44.0939Z" fill="#292F36"/>
<path d="M25.8599 46.8439L26.7048 47.3176C26.6344 47.4539 26.5478 47.5899 26.4503 47.7152C26.3528 47.8459 26.2445 47.9602 26.1361 48.0582C25.9412 48.2326 25.7083 48.3579 25.4429 48.4449C25.1775 48.5319 24.9067 48.5809 24.625 48.5866C23.9967 48.5866 23.493 48.3742 23.1031 47.9439C22.7185 47.5192 22.5236 46.9692 22.5236 46.2992C22.5181 45.6022 22.7077 45.0416 23.0868 44.6166C23.4714 44.1866 23.9805 43.9742 24.6142 43.9742C24.9879 43.9796 25.3129 44.0559 25.5945 44.2029C25.8762 44.3499 26.0982 44.5406 26.2607 44.7746C26.3853 44.9706 26.4828 45.2102 26.5478 45.4936C26.6182 45.7766 26.6561 46.0652 26.6615 46.3646V46.5226H23.5635C23.5688 46.8602 23.6826 47.1379 23.8938 47.3559C24.1105 47.5736 24.3867 47.6826 24.7279 47.6826C24.8471 47.6826 24.9608 47.6662 25.08 47.6279C25.1991 47.5952 25.3074 47.5299 25.4158 47.4482C25.5024 47.3829 25.5837 47.2959 25.6595 47.1869C25.7407 47.0779 25.8112 46.9636 25.8599 46.8439ZM23.623 45.6896H25.6216C25.562 45.4446 25.4429 45.2482 25.2587 45.1012C25.0745 44.9542 24.8633 44.8782 24.625 44.8782C24.3759 44.8836 24.1646 44.9599 23.9805 45.1122C23.8017 45.2592 23.6826 45.4552 23.623 45.6896Z" fill="#292F36"/>
<path d="M29.2402 41.2025H30.2422V48.4502H29.2402V41.2025Z" fill="#292F36"/>
<path d="M39.4815 44.2899V45.6132C39.3352 45.3899 39.1565 45.2102 38.9347 45.0796C38.7126 44.9489 38.4796 44.8836 38.2303 44.8836C37.8785 44.8836 37.5752 45.0089 37.3207 45.2592C37.0658 45.5042 36.9361 45.8472 36.9361 46.2829C36.9304 46.6752 37.0443 47.0072 37.2773 47.2796C37.5157 47.5519 37.8298 47.6826 38.2197 47.6826C38.4905 47.6826 38.7288 47.6172 38.9453 47.4866C39.1621 47.3559 39.3409 47.1762 39.4872 46.9419V48.2596C39.2975 48.3742 39.1025 48.4502 38.9019 48.5049C38.7017 48.5592 38.4958 48.5809 38.2899 48.5809C37.9109 48.5756 37.5752 48.5156 37.2826 48.4122C36.99 48.3086 36.7355 48.1399 36.5134 47.9112C36.2969 47.6932 36.1397 47.4539 36.037 47.1816C35.9341 46.9146 35.8851 46.6152 35.896 46.2939C35.896 45.9456 35.9556 45.6242 36.0695 45.3356C36.183 45.0416 36.3618 44.7856 36.6057 44.5622C36.8278 44.3499 37.0714 44.1976 37.3313 44.1102C37.5915 44.0176 37.8947 43.9742 38.2359 43.9742C38.4905 43.9742 38.7179 44.0012 38.9182 44.0559C39.1078 44.1049 39.3028 44.1866 39.4815 44.2899Z" fill="#292F36"/>
<path d="M44.0432 43.9742C44.7039 43.9796 45.2508 44.2029 45.695 44.6329C46.1392 45.0686 46.3557 45.6186 46.3557 46.2829C46.3557 46.9472 46.1336 47.4972 45.6897 47.9329C45.2455 48.3686 44.6983 48.5866 44.0432 48.5866C43.3822 48.5866 42.8354 48.3686 42.3912 47.9329C41.9526 47.4919 41.7305 46.9419 41.7305 46.2829C41.7305 45.6186 41.9469 45.0686 42.3859 44.6329C42.8245 44.1919 43.3769 43.9742 44.0432 43.9742ZM44.0432 47.6826C44.4275 47.6826 44.7364 47.5572 44.9638 47.3012C45.1912 47.0509 45.3103 46.7132 45.316 46.2886C45.316 45.8692 45.2021 45.5316 44.9694 45.2702C44.7364 45.0142 44.4275 44.8836 44.0432 44.8836C43.6477 44.8836 43.3388 45.0142 43.1114 45.2702C42.884 45.5316 42.7702 45.8692 42.7702 46.2886C42.7702 46.7132 42.884 47.0452 43.1114 47.3012C43.3388 47.5572 43.6477 47.6826 44.0432 47.6826Z" fill="#292F36"/>
<path d="M48.9062 48.4502V44.0939H49.9082V44.4969C50.0436 44.3172 50.2061 44.1866 50.3849 44.0996C50.5636 44.0176 50.7639 43.9742 50.986 43.9742C51.2243 43.9742 51.4355 44.0286 51.6361 44.1429C51.8311 44.2519 51.988 44.4152 52.1071 44.6276C52.2534 44.4099 52.4322 44.2466 52.6596 44.1429C52.8817 44.0339 53.1256 43.9796 53.3964 43.9796C53.6672 43.9796 53.8999 44.0396 54.1114 44.1539C54.3226 44.2736 54.4957 44.4426 54.6311 44.6656C54.7069 44.8072 54.7665 44.9706 54.7992 45.1502C54.8317 45.3302 54.8532 45.5316 54.8588 45.7602V48.4502H53.8621V46.0542C53.8621 45.8746 53.8512 45.7222 53.835 45.5916C53.8188 45.4609 53.7973 45.3519 53.7754 45.2756C53.7211 45.1502 53.651 45.0522 53.5533 44.9869C53.456 44.9162 53.3368 44.8836 53.1958 44.8836C53.0661 44.8836 52.9469 44.9109 52.844 44.9652C52.741 45.0196 52.6543 45.1069 52.5894 45.2156C52.5242 45.3139 52.4755 45.4499 52.4378 45.6132C52.3997 45.7819 52.3888 45.9782 52.3944 46.2012V48.4502H51.3925V46.0542C51.3925 45.9182 51.3815 45.7712 51.3597 45.6186C51.3435 45.4662 51.3163 45.3519 51.2948 45.2756C51.2405 45.1396 51.1647 45.0359 51.0674 44.9762C50.9698 44.9162 50.8506 44.8836 50.7152 44.8836C50.5855 44.8836 50.4663 44.9109 50.3634 44.9706C50.2548 45.0306 50.1737 45.1122 50.1088 45.2156C50.0436 45.3139 49.9949 45.4389 49.9678 45.5859C49.9354 45.7329 49.9244 45.9399 49.9244 46.2012V48.4502H48.9062Z" fill="#292F36"/>
<path d="M58.6131 44.0939V44.5676C58.7756 44.3716 58.9706 44.2246 59.2033 44.1212C59.4363 44.0232 59.6746 43.9742 59.9239 43.9742C60.5031 43.9796 61.0016 44.1976 61.4078 44.6166C61.8139 45.0359 62.0198 45.5859 62.0198 46.2612C62.0198 46.9472 61.803 47.5029 61.3753 47.9386C60.9474 48.3686 60.4654 48.5866 59.9292 48.5866C59.6799 48.5866 59.4363 48.5266 59.198 48.4176C58.9596 48.3032 58.7594 48.1509 58.6078 47.9439V50.5196H57.6055V44.0939H58.6131ZM59.7776 44.8836C59.4363 44.8889 59.1493 45.0142 58.911 45.2646C58.6726 45.5099 58.5535 45.8582 58.5535 46.2939C58.5535 46.6916 58.6617 47.0182 58.8785 47.2849C59.095 47.5519 59.3929 47.6826 59.7829 47.6826C60.146 47.6826 60.4436 47.5519 60.6604 47.2849C60.8768 47.0182 60.9854 46.6859 60.9854 46.2776C60.9798 45.8472 60.8553 45.5099 60.6223 45.2646C60.3787 45.0089 60.097 44.8836 59.7776 44.8836Z" fill="#292F36"/>
<path d="M67.7653 44.0938H68.7617V48.4502H67.7653V47.9982C67.5919 48.1998 67.4022 48.3522 67.1804 48.4448C66.9583 48.5428 66.72 48.5865 66.4492 48.5865C65.8154 48.5865 65.3063 48.3575 64.9216 47.8948C64.5373 47.4318 64.3477 46.8928 64.3477 46.2665C64.3477 45.6458 64.5317 45.1122 64.911 44.6548C65.29 44.1975 65.8044 43.9685 66.4545 43.9685C66.7362 43.9685 66.9855 44.0232 67.202 44.1375C67.4188 44.2465 67.6081 44.4042 67.7597 44.6002V44.0938H67.7653ZM66.6114 44.8835C66.2434 44.8835 65.9507 45.0195 65.7286 45.2918C65.5069 45.5642 65.393 45.8962 65.393 46.2885C65.393 46.6858 65.5012 47.0125 65.718 47.2795C65.9345 47.5462 66.2324 47.6768 66.6114 47.6768C66.9855 47.6768 67.2778 47.5462 67.4999 47.2905C67.7163 47.0345 67.8302 46.6915 67.8302 46.2775C67.8249 45.8365 67.7001 45.4935 67.4674 45.2482C67.2291 45.0032 66.9421 44.8835 66.6114 44.8835Z" fill="#292F36"/>
<path d="M71.5293 48.4502V44.0939H72.5313V44.4969C72.6829 44.3172 72.8563 44.1866 73.0566 44.0996C73.2568 44.0176 73.4789 43.9742 73.7173 43.9742C73.9827 43.9742 74.232 44.0286 74.4594 44.1266C74.6868 44.2302 74.8656 44.3716 74.9956 44.5676C75.0824 44.7039 75.1472 44.8726 75.1906 45.0632C75.234 45.2539 75.2555 45.4936 75.2555 45.7819V48.4502H74.2588V46.0272C74.2535 45.5806 74.183 45.2756 74.0423 45.1176C73.9069 44.9599 73.7067 44.8782 73.4518 44.8782C73.1324 44.8782 72.8941 44.9869 72.7477 45.2049C72.5961 45.4226 72.5256 45.8039 72.5313 46.3592V48.4502H71.5293Z" fill="#292F36"/>
<path d="M77.8931 50.5195L79.3826 47.6062L77.4707 44.0939H78.6892L79.9619 46.5389L81.1807 44.0939H82.318L79.0357 50.5195H77.8931Z" fill="#292F36"/>
</g>
<defs>
<clipPath id="clip0_13284_871">
<rect width="135.714" height="50" fill="white" transform="translate(0.285156 0.519531)"/>
</clipPath>
</defs>
</svg>
