<svg width="145" height="71" viewBox="0 0 145 71" fill="none" xmlns="http://www.w3.org/2000/svg">
<g clip-path="url(#clip0_13284_633)">
<path d="M88.3492 10.7558L76.1407 1.87928C75.0497 1.10478 73.745 0.688721 72.4073 0.688721C71.0697 0.688721 69.7649 1.10476 68.674 1.87928L56.4655 10.7558C55.3788 11.5425 54.5699 12.6543 54.1555 13.9308C53.741 15.2072 53.7425 16.5824 54.1596 17.858L58.8216 32.2215C59.2356 33.4981 60.0434 34.6106 61.1289 35.399C62.2144 36.1874 63.5217 36.6112 64.863 36.6095H79.9559C81.2971 36.61 82.6038 36.1852 83.6885 35.396C84.7732 34.6068 85.58 33.494 85.993 32.2174L90.655 17.8575C91.0716 16.5818 91.0727 15.2068 90.6586 13.9305C90.2443 12.6542 89.4353 11.5429 88.3492 10.7558ZM89.1416 17.3672L84.4796 31.7314C84.1699 32.6885 83.5646 33.5226 82.751 34.1137C81.9374 34.7047 80.9573 35.0222 79.9518 35.0202H64.8589C63.8542 35.0212 62.8751 34.7034 62.0622 34.1124C61.2494 33.5215 60.6448 32.6878 60.3353 31.7314L55.6733 17.3672C55.3599 16.4112 55.3584 15.3803 55.6689 14.4234C55.9794 13.4665 56.5858 12.6331 57.4006 12.0436L62.3477 8.44431L69.6087 3.16693C70.4238 2.57038 71.4076 2.24882 72.4176 2.24882C73.4275 2.24882 74.4114 2.57037 75.2266 3.16693L82.4962 8.45269L87.4349 12.0436C88.2449 12.6367 88.8465 13.4714 89.1531 14.4279C89.4596 15.3843 89.4559 16.4133 89.1416 17.3672Z" fill="#292F36"/>
<path d="M82.3821 18.0895L72.4125 28.8291L62.4473 18.0895L66.0193 33.2799H78.8108L82.3821 18.0895Z" fill="#292F36"/>
<path d="M70.2404 4.8847L63.4863 9.76774L72.4118 20.071L81.3294 9.77633L74.5712 4.88491C73.9419 4.42689 73.1838 4.18018 72.4058 4.18018C71.6276 4.18018 70.8696 4.42668 70.2404 4.8847Z" fill="#292F36"/>
<path d="M21.9085 52.0625H25.602L26.4111 48.9959H21.9085V46.479H26.1974L27.0149 43.4124H18.7012V57.7214H26.197L27.2116 54.6548H21.9081L21.9085 52.0625Z" fill="#292F36"/>
<path d="M29.4297 46.4795H33.6348V57.7222H36.8378V46.4795H40.2922L41.0431 43.413H29.4299L29.4297 46.4795Z" fill="#292F36"/>
<path d="M81.1976 54.9002C80.631 54.9213 80.0661 54.8249 79.5384 54.6169C79.0116 54.409 78.5323 54.0941 78.1327 53.6921C77.7399 53.2749 77.4328 52.7839 77.2295 52.2475C77.027 51.7112 76.9319 51.1399 76.9501 50.5668C76.9501 49.195 77.3108 48.1336 78.053 47.3786C78.4181 47.002 78.8575 46.7057 79.3429 46.5086C79.829 46.3114 80.3507 46.2176 80.8749 46.2334C81.8931 46.246 82.8871 46.5502 83.7383 47.1101L85.1596 44.656C84.279 43.7793 82.644 43.1667 80.8749 43.1667C78.5521 43.1667 76.7502 43.866 75.4707 45.2643C74.1653 46.7199 73.4758 48.6252 73.5459 50.5794C73.5459 52.8071 74.2293 54.5858 75.5875 55.9534C76.9465 57.3209 78.7113 57.9544 80.8956 57.9544C81.8005 57.9726 82.7019 57.8306 83.5574 57.5349C84.2841 57.3 84.939 56.8843 85.4614 56.3267L84.2408 53.8726C83.3714 54.5497 82.2988 54.9118 81.1976 54.9002Z" fill="#292F36"/>
<path d="M86.8849 46.4787H91.0901V57.7214H94.2935V46.4787H97.7062L98.4987 43.4121H86.8848L86.8849 46.4787Z" fill="#292F36"/>
<path d="M141.406 43.4125L135.201 52.3062V43.4125H131.998V57.7215H134.798L141.007 48.8278V57.7215H144.21V43.4125H141.406Z" fill="#292F36"/>
<path d="M136.25 40.8176L138.107 43.4059L139.969 40.8176H136.25Z" fill="#292F36"/>
<path d="M11.9925 43.3881L7.90905 49.0849V49.1017L3.82558 43.4048H0.601562V57.7059H3.80461V48.7076L7.67008 54.2325H7.90901V54.2158H8.14803L12.0135 48.6909V57.6935H15.2123V43.3881H11.9925Z" fill="#292F36"/>
<path d="M126.477 45.1888C125.767 44.5107 124.928 43.9824 124.009 43.635C123.091 43.2877 122.113 43.1285 121.132 43.1668C120.147 43.1264 119.165 43.2898 118.246 43.6466C117.328 44.0035 116.492 44.5463 115.793 45.2408C115.094 45.9355 114.546 46.767 114.183 47.6834C113.819 48.6 113.649 49.5815 113.682 50.5669C113.682 52.7945 114.382 54.5941 115.778 55.9408C116.492 56.6149 117.333 57.1401 118.253 57.4858C119.172 57.8314 120.15 57.9908 121.132 57.9544C122.115 57.9839 123.094 57.8131 124.009 57.4526C124.924 57.092 125.757 56.5491 126.456 55.8568C127.157 55.1656 127.708 54.3363 128.073 53.4215C128.438 52.5067 128.61 51.5262 128.578 50.5417C128.578 48.3393 127.886 46.5395 126.477 45.1888ZM124.112 53.692C123.729 54.0784 123.272 54.3844 122.769 54.5921C122.266 54.7998 121.727 54.905 121.182 54.9014C120.638 54.898 120.1 54.7858 119.6 54.5716C119.099 54.3575 118.646 54.0456 118.268 53.6543C117.483 52.8211 117.058 51.7116 117.086 50.5666C117.063 49.9945 117.154 49.4236 117.353 48.8865C117.551 48.3495 117.854 47.857 118.243 47.4371C118.622 47.0555 119.073 46.7528 119.569 46.5461C120.066 46.3395 120.598 46.2332 121.136 46.2332C121.673 46.2332 122.206 46.3395 122.702 46.5461C123.199 46.7528 123.649 47.0555 124.029 47.4371C124.422 47.8542 124.727 48.3462 124.927 48.8838C125.126 49.4214 125.216 49.9937 125.19 50.5666C125.226 51.7054 124.843 52.8179 124.112 53.692Z" fill="#292F36"/>
<path d="M109.919 44.7195C109.018 43.8218 107.576 43.3714 105.591 43.3687C105.214 43.3687 104.451 43.3687 103.332 43.3896C102.212 43.4106 101.55 43.3896 101.307 43.3896V57.7201H104.51V52.8539C105.033 52.9054 105.557 52.9279 106.082 52.9209C106.771 52.9529 107.461 52.8465 108.109 52.6081C108.757 52.3696 109.351 52.0039 109.855 51.5324C110.312 51.09 110.674 50.5589 110.918 49.9717C111.162 49.3846 111.284 48.7537 111.277 48.1177C111.298 47.4881 111.188 46.8608 110.954 46.2758C110.72 45.6908 110.368 45.1606 109.919 44.7195ZM105.973 49.8501C105.484 49.8443 104.995 49.8107 104.51 49.7494V46.4773C105.394 46.4563 105.855 46.4353 105.914 46.4353C107.214 46.4353 107.855 46.9891 107.855 48.1134C107.855 49.3383 106.996 49.8501 105.973 49.8501Z" fill="#292F36"/>
<path d="M69.0222 45.1889C67.6415 43.838 65.8594 43.1641 63.6769 43.1668C62.6924 43.1264 61.7097 43.2898 60.791 43.6466C59.8732 44.0035 59.0375 44.5463 58.3385 45.2408C57.6395 45.9355 57.091 46.767 56.7277 47.6834C56.3644 48.6 56.1931 49.5816 56.2268 50.5669C56.2268 52.7945 56.9267 54.5941 58.3229 55.9408C59.0375 56.6149 59.8783 57.1401 60.7979 57.4858C61.7166 57.8314 62.695 57.9908 63.6769 57.9544C64.6597 57.9839 65.6389 57.8131 66.5542 57.4526C67.4694 57.092 68.3017 56.5491 69.0015 55.8568C69.7022 55.1656 70.2533 54.3363 70.6183 53.4215C70.9834 52.5067 71.1547 51.5262 71.1227 50.5417C71.1227 48.3393 70.4435 46.5396 69.0222 45.1889ZM66.67 53.692C66.2859 54.0823 65.8283 54.3916 65.3222 54.6015C64.817 54.8115 64.2746 54.9178 63.727 54.9144C63.1803 54.9109 62.6387 54.7975 62.1361 54.5811C61.6336 54.3646 61.1793 54.0494 60.8005 53.6543C60.0176 52.8199 59.5928 51.7112 59.6179 50.5667C59.5686 49.4135 59.9786 48.2878 60.759 47.4372C61.131 47.0429 61.5817 46.7318 62.0826 46.5244C62.5835 46.3168 63.1224 46.2176 63.664 46.2332C64.202 46.2237 64.7358 46.3258 65.2323 46.533C65.7289 46.7402 66.177 47.0481 66.5481 47.4371C66.9417 47.8543 67.2471 48.3463 67.4469 48.8839C67.6459 49.4215 67.7359 49.9937 67.7099 50.5667C67.7592 51.7009 67.3889 52.8137 66.67 53.692Z" fill="#292F36"/>
<path d="M52.4739 44.7195C51.5715 43.8218 50.1303 43.3714 48.1519 43.3687C47.7704 43.3687 47.0117 43.3687 45.888 43.3896C44.7643 43.4106 44.1059 43.3896 43.8672 43.3896V57.7201H47.0697V52.8539C47.5957 52.906 48.1234 52.9285 48.6511 52.9209C49.3406 52.9534 50.0301 52.8472 50.678 52.6088C51.3259 52.3702 51.9194 52.0043 52.4237 51.5324C52.8814 51.0905 53.2438 50.5596 53.4878 49.9723C53.7326 49.385 53.8537 48.7538 53.845 48.1176C53.8649 47.487 53.7533 46.8592 53.5172 46.2741C53.281 45.6891 52.9263 45.1596 52.4739 44.7195ZM48.5334 49.8501C48.0438 49.8445 47.5559 49.8109 47.0697 49.7494V46.4773C47.9504 46.4563 48.4115 46.4353 48.4703 46.4353C49.774 46.4353 50.4159 46.9891 50.4159 48.1134C50.4159 49.3383 49.5516 49.8501 48.5334 49.8501Z" fill="#292F36"/>
<path d="M40.5925 68.3128L41.0121 69.1056C40.8365 69.2834 40.6211 69.4158 40.3832 69.4915C40.1011 69.5898 39.805 69.6394 39.5068 69.6384C39.1826 69.6545 38.8586 69.6045 38.5544 69.4913C38.2502 69.378 37.9723 69.204 37.7375 68.9798C37.5118 68.7532 37.3356 68.4823 37.2201 68.184C37.1046 67.8858 37.0525 67.5668 37.0668 67.2472C37.0436 66.6142 37.2711 65.9975 37.6998 65.5314C37.9324 65.2997 38.2115 65.12 38.5187 65.0044C38.8258 64.8887 39.154 64.8395 39.4816 64.8602C39.7669 64.8538 40.051 64.8993 40.32 64.9944C40.5406 65.0657 40.7422 65.1846 40.9109 65.3427L40.4455 66.1313C40.1634 65.9525 39.8369 65.8552 39.5025 65.8502C39.3304 65.8447 39.159 65.8746 38.9989 65.9382C38.8387 66.0016 38.6934 66.0974 38.5718 66.2194C38.4452 66.3575 38.3477 66.5196 38.285 66.6962C38.2224 66.8727 38.1959 67.0601 38.2071 67.2471C38.1987 67.4334 38.2292 67.6193 38.2967 67.7931C38.3641 67.9669 38.4669 68.1247 38.5987 68.2565C38.7303 68.3883 38.8881 68.4912 39.0618 68.5587C39.2355 68.6261 39.4212 68.6567 39.6074 68.6483C39.9633 68.6459 40.3087 68.5282 40.5925 68.3128Z" fill="#292F36"/>
<path d="M41.7227 69.5583V64.9437H44.4477V65.9338H42.7712V66.7308H44.2556V67.7208H42.7712V68.5599H44.5195V69.5499L41.7227 69.5583Z" fill="#292F36"/>
<path d="M45.5098 69.5461V64.9525C46.0254 64.9231 46.4908 64.9105 46.9103 64.9105C47.3239 64.8785 47.7356 64.9911 48.0756 65.2293C48.2011 65.3294 48.3005 65.4575 48.3671 65.6032C48.4329 65.749 48.464 65.9083 48.4571 66.0684C48.4684 66.2713 48.4251 66.4735 48.3334 66.6546C48.2417 66.8357 48.1033 66.9895 47.9329 67.1003C48.1249 67.1729 48.2893 67.3034 48.4026 67.4737C48.5367 67.6759 48.6024 67.9154 48.5912 68.1575C48.6024 68.3606 48.5635 68.5632 48.4787 68.748C48.394 68.9329 48.2659 69.0944 48.105 69.2188C47.7365 69.4731 47.2945 69.5997 46.8472 69.5796C46.2269 69.5838 45.7823 69.5712 45.5098 69.5461ZM46.8939 65.9005C46.784 65.904 46.675 65.9138 46.5669 65.9299V66.7689H46.9147C47.2417 66.7689 47.4052 66.6221 47.4052 66.32C47.4069 66.2605 47.3948 66.2014 47.368 66.1479C47.342 66.0945 47.3022 66.0484 47.2538 66.0138C47.1508 65.9349 47.0237 65.8921 46.8939 65.8921L46.8939 65.9005ZM46.9735 67.6918H46.5539V68.556C46.6707 68.5835 46.7901 68.5962 46.9103 68.5937C47.3299 68.5937 47.5228 68.4344 47.5228 68.1072C47.5228 67.7799 47.3507 67.6918 46.9562 67.6918L46.9735 67.6918Z" fill="#292F36"/>
<path d="M49.584 69.5583V64.9437H52.322V65.9338H50.6446V66.7308H52.129V67.7208H50.6446V68.5599H52.4102V69.5499L49.584 69.5583Z" fill="#292F36"/>
<path d="M54.4313 69.5611H53.375V64.9465H54.7877C55.299 64.8985 55.8094 65.0486 56.2133 65.366C56.5014 65.6631 56.6597 66.0625 56.6537 66.4763C56.6468 66.8901 56.4763 67.2845 56.1796 67.5726C56.0109 67.7276 55.812 67.8472 55.5965 67.9243C55.3803 68.0014 55.151 68.0344 54.9218 68.0215C54.7514 68.0301 54.5809 68.0301 54.4105 68.0215L54.4313 69.5611ZM54.8924 65.9198H54.4313V66.9853C54.5913 67.0086 54.7522 67.0198 54.914 67.0188C55.0636 67.0208 55.2107 66.9752 55.3327 66.8888C55.3958 66.8393 55.446 66.7754 55.4789 66.7023C55.5118 66.6292 55.5265 66.5493 55.5213 66.4693C55.5342 66.0959 55.3413 65.9198 54.8924 65.9198Z" fill="#292F36"/>
<path d="M60.2606 69.5582V67.6956H58.5832V69.5582H57.5312V64.9437H58.5832V66.7098H60.2606V64.9395H61.3169V69.5541L60.2606 69.5582Z" fill="#292F36"/>
<path d="M62.1636 67.2458C62.1549 66.9302 62.2111 66.6162 62.3279 66.3232C62.4456 66.0302 62.6221 65.7645 62.847 65.5426C63.0788 65.3134 63.3565 65.1346 63.6602 65.0169C63.9647 64.8993 64.29 64.8454 64.6161 64.8588C65.2666 64.8346 65.9016 65.0683 66.3808 65.5091C66.822 65.9763 67.0677 66.5947 67.0677 67.2374C67.0677 67.8802 66.822 68.4986 66.3808 68.9658C65.8938 69.3932 65.2684 69.6289 64.6204 69.6289C63.9724 69.6289 63.3461 69.3932 62.859 68.9658C62.6289 68.744 62.4481 68.4763 62.3287 68.1799C62.2085 67.8836 62.1523 67.5653 62.1636 67.2458ZM63.2873 67.2458C63.2813 67.4296 63.3124 67.6127 63.3782 67.7842C63.4448 67.9557 63.5451 68.1122 63.6732 68.2442C63.7917 68.3769 63.937 68.4829 64.0996 68.5553C64.2623 68.6276 64.4379 68.6646 64.6161 68.6637C64.7995 68.6738 64.982 68.6438 65.1524 68.5756C65.3229 68.5075 65.476 68.403 65.6014 68.2694C65.8402 67.9896 65.9639 67.6301 65.9492 67.2626C65.957 67.0777 65.9276 66.8931 65.8618 66.72C65.7961 66.5469 65.6966 66.389 65.5677 66.2558C65.3125 66.0069 64.9699 65.8677 64.6144 65.8677C64.258 65.8677 63.9154 66.0069 63.6602 66.2558C63.4171 66.5264 63.2908 66.8822 63.3081 67.2458L63.2873 67.2458Z" fill="#292F36"/>
<path d="M68.857 69.559H67.9219V64.9444H68.979V67.8138L71.0249 64.9444H71.9471V69.559H70.8951V66.6895L68.857 69.559ZM68.6598 63.7488H69.6494C69.6442 63.7963 69.6494 63.8445 69.665 63.8897C69.6814 63.9348 69.7074 63.9756 69.742 64.0089C69.8363 64.0651 69.9461 64.0901 70.056 64.0802C70.1589 64.0898 70.2619 64.0662 70.3501 64.0131C70.3838 63.9789 70.4098 63.9372 70.4254 63.8914C70.4401 63.8455 70.4444 63.7967 70.4375 63.7488H71.4271C71.434 63.8978 71.4029 64.046 71.338 64.1801C71.2731 64.3142 71.1754 64.4299 71.0543 64.5165C70.7627 64.7218 70.4115 64.8238 70.0559 64.806C69.6917 64.8277 69.3301 64.7274 69.0291 64.5207C68.9097 64.4312 68.8146 64.3143 68.7506 64.1799C68.6857 64.0455 68.6554 63.8976 68.6598 63.7488Z" fill="#292F36"/>
<path d="M77.6579 68.312L78.0774 69.1049C77.9036 69.2827 77.689 69.4152 77.452 69.4908C77.1691 69.589 76.8715 69.6387 76.5722 69.6376C76.2513 69.6509 75.9312 69.5995 75.631 69.4863C75.3308 69.3732 75.0557 69.2006 74.8239 68.979C74.5981 68.7525 74.4216 68.4815 74.3066 68.1833C74.1906 67.885 74.1387 67.566 74.1526 67.2464C74.1301 66.6134 74.3576 65.9967 74.7858 65.5307C75.0185 65.2994 75.298 65.1201 75.6051 65.0044C75.9122 64.8887 76.24 64.8393 76.5679 64.8595C76.8465 64.8556 77.1233 64.901 77.3854 64.9937C77.606 65.064 77.8076 65.183 77.9763 65.3419L77.5109 66.1306C77.2288 65.9518 76.9018 65.8545 76.5679 65.8495C76.3966 65.8445 76.2253 65.8747 76.0661 65.9382C75.907 66.0017 75.7625 66.0971 75.6414 66.2186C75.5134 66.356 75.4147 66.5179 75.3516 66.6946C75.2876 66.8713 75.2608 67.059 75.272 67.2464C75.2642 67.4326 75.2945 67.6186 75.362 67.7924C75.4295 67.9661 75.5324 68.124 75.6639 68.2557C75.7954 68.3875 75.9537 68.4904 76.1267 68.5579C76.3006 68.6254 76.4866 68.6559 76.6726 68.6476C77.029 68.6458 77.3741 68.528 77.6579 68.312Z" fill="#292F36"/>
<path d="M78.2598 65.9294V64.9393H82.0869V65.9294H80.7036V69.5581H79.6638V65.9294H78.2598Z" fill="#292F36"/>
<path d="M82.216 67.2472C82.2073 66.9315 82.2636 66.6175 82.3812 66.3246C82.4989 66.0315 82.6754 65.7658 82.8994 65.544C83.1347 65.3122 83.415 65.1316 83.723 65.014C84.0309 64.8963 84.3605 64.8439 84.6901 64.8602C85.3407 64.8364 85.9747 65.07 86.4549 65.5105C86.8961 65.9777 87.1418 66.5961 87.1418 67.2388C87.1418 67.8815 86.8961 68.4999 86.4549 68.9672C86.2222 69.1909 85.9462 69.3656 85.6444 69.4809C85.3433 69.5961 85.0215 69.6497 84.698 69.6383C84.0465 69.6624 83.4116 69.4271 82.9332 68.9839C82.697 68.7623 82.511 68.4926 82.3873 68.1931C82.2636 67.8935 82.2056 67.571 82.216 67.2472ZM83.3354 67.2472C83.3311 67.4312 83.3623 67.6144 83.4297 67.7859C83.4963 67.9574 83.5975 68.1137 83.7255 68.2456C83.8441 68.3783 83.9894 68.4843 84.152 68.5567C84.3147 68.6289 84.4912 68.6659 84.6694 68.6651C84.8519 68.6763 85.0344 68.6467 85.204 68.5785C85.3735 68.5103 85.5258 68.4051 85.6504 68.2707C85.8917 67.9925 86.0172 67.6322 86.0024 67.2639C86.0096 67.0787 85.9791 66.894 85.9125 66.7209C85.8467 66.5478 85.7455 66.39 85.6166 66.2571C85.3623 66.0085 85.0206 65.8694 84.665 65.8694C84.3095 65.8694 83.9678 66.0086 83.7135 66.2571C83.588 66.3893 83.4911 66.5447 83.4263 66.7146C83.3614 66.8845 83.3302 67.0654 83.3354 67.2472Z" fill="#292F36"/>
<path d="M90.4532 69.5603V65.9316H89.4385L89.3381 66.7999C89.2853 67.3006 89.1971 67.7968 89.0743 68.285C88.9973 68.6034 88.8545 68.902 88.6547 69.1617C88.518 69.3427 88.3294 69.4775 88.114 69.5477C87.8735 69.6033 87.6244 69.6033 87.3848 69.5477L87.4055 68.4905C87.4808 68.5121 87.5604 68.5121 87.6356 68.4905C87.7239 68.4586 87.8 68.3999 87.8536 68.3227C87.9505 68.1981 88.0223 68.0556 88.0638 67.9032C88.1408 67.6425 88.1971 67.3759 88.2317 67.1061C88.2896 66.7622 88.332 66.3385 88.3692 65.8477L88.4367 64.9247H91.4974V69.5393L90.4532 69.5603Z" fill="#292F36"/>
<path d="M93.6195 69.5575H92.6973V64.943H93.7535V67.8124L95.7994 64.943H96.7225V69.5575H95.6654V66.6881L93.6195 69.5575Z" fill="#292F36"/>
<path d="M97.9141 69.5582V64.9437H98.9703V68.5724H100.555V64.9395H101.607V68.5682H102.236V70.3511H101.246V69.5582H97.9141Z" fill="#292F36"/>
<path d="M104.018 64.939V66.3821C104.157 66.3655 104.296 66.3571 104.436 66.3569C104.664 66.3403 104.891 66.3688 105.108 66.4408C105.323 66.5128 105.523 66.6269 105.694 66.7765C105.839 66.9275 105.951 67.1068 106.023 67.3032C106.096 67.4995 106.126 67.7087 106.114 67.9175C106.123 68.1435 106.083 68.3688 105.996 68.5776C105.91 68.7864 105.778 68.9735 105.61 69.1257C105.215 69.4455 104.714 69.6056 104.206 69.5746H102.965V64.96L104.018 64.939ZM104.336 67.3469C104.23 67.3517 104.123 67.3629 104.018 67.3805V68.5552L104.327 68.5803C104.416 68.5939 104.505 68.587 104.589 68.5602C104.674 68.5332 104.751 68.4871 104.815 68.4253C104.879 68.3635 104.928 68.2878 104.957 68.2041C104.987 68.1203 104.997 68.0309 104.986 67.9426C104.991 67.8599 104.98 67.7766 104.95 67.6991C104.92 67.6215 104.874 67.5514 104.814 67.4938C104.677 67.39 104.507 67.3381 104.336 67.3469ZM106.558 69.5577V64.9432H107.615V69.5577H106.558Z" fill="#292F36"/>
</g>
<defs>
<clipPath id="clip0_13284_633">
<rect width="143.612" height="69.6626" fill="white" transform="translate(0.601562 0.688232)"/>
</clipPath>
</defs>
</svg>
