<svg width="123" height="85" viewBox="0 0 123 85" fill="none" xmlns="http://www.w3.org/2000/svg">
<path d="M7.44846 9.64687C7.45302 10.0712 7.35449 10.4903 7.16139 10.8679C6.96828 11.2455 6.68642 11.5702 6.34015 11.814C5.59798 12.3581 4.6955 12.637 3.7768 12.6063C2.90858 12.6094 2.05597 12.3748 1.31079 11.9279L1.1582 10.8144L1.33841 10.7321C1.66457 11.0537 2.04168 11.3187 2.45437 11.5164C2.79868 11.6809 3.17448 11.7686 3.55584 11.7734C3.79045 11.7822 4.02423 11.7407 4.2416 11.6517C4.45897 11.5628 4.65495 11.4283 4.81647 11.2574C5.15444 10.8745 5.32868 10.3735 5.30157 9.86276C5.30157 9.10015 5.1076 8.55617 4.71966 8.23082C4.33066 7.94718 3.85497 7.80908 3.37509 7.84046H2.66849C2.69533 7.6728 2.70923 7.50332 2.71005 7.33351C2.7103 7.16803 2.6964 7.00283 2.66849 6.83973L3.19489 6.85345C3.45235 6.8743 3.71123 6.83799 3.95312 6.7471C4.19501 6.65621 4.41397 6.51297 4.59442 6.32757C4.88961 5.96091 5.03783 5.49696 5.01007 5.02647C5.02124 4.81751 4.9888 4.60851 4.91482 4.41286C4.84085 4.2172 4.72697 4.03919 4.58048 3.89022C4.43912 3.7534 4.27201 3.64621 4.0889 3.5749C3.9058 3.50359 3.71036 3.46959 3.51401 3.4749C3.14285 3.47813 2.78016 3.58654 2.46777 3.78763C2.10264 4.02734 1.80837 4.36101 1.61569 4.75379H1.39419C1.39419 4.55902 1.38727 4.38528 1.37341 4.23258C1.35956 4.07987 1.31097 3.75352 1.22766 3.25352C2.07871 2.84115 3.01329 2.63178 3.95837 2.64178C4.72249 2.6091 5.48043 2.79216 6.146 3.17013C6.44233 3.33961 6.68679 3.5872 6.85289 3.88608C7.01899 4.18496 7.10041 4.52374 7.08832 4.86571C7.10027 5.16092 7.05103 5.45541 6.94371 5.73055C6.8364 6.0057 6.67334 6.25551 6.46484 6.46419C6.02146 6.86184 5.47297 7.12248 4.88538 7.21473V7.33982C5.51409 7.31446 6.13326 7.5003 6.64478 7.86789C6.91259 8.07673 7.1257 8.34783 7.26572 8.65777C7.40574 8.96771 7.46846 9.30718 7.44846 9.64687Z" fill="#292F36"/>
<path d="M10.5382 8.54912L10.4966 8.67421H13.0321C12.6628 7.6552 12.2517 6.57565 11.7988 5.43557C11.5587 6.00122 11.3394 6.52481 11.1409 7.00634C10.9424 7.48786 10.7418 8.00213 10.5393 8.54912M7.89172 12.3573V12.2462L8.91717 9.86861C9.46207 8.63599 9.96778 7.44726 10.4343 6.30243C10.9008 5.15759 11.3556 3.978 11.7988 2.76367C11.8809 2.78315 11.9768 2.79988 12.0829 2.8147C12.1633 2.82707 12.2443 2.8344 12.3255 2.83664C12.4206 2.83867 12.5157 2.83132 12.6093 2.8147L12.8519 2.76367L12.949 3.00014C13.3553 4.06597 13.7433 5.0763 14.1128 6.03112C14.5651 7.18035 14.9669 8.19068 15.3182 9.06211C15.6135 9.79363 16.0337 10.7995 16.5788 12.0796L16.6483 12.2324V12.3575C16.4727 12.3575 16.3295 12.353 16.2187 12.3438C15.7662 12.3072 15.5168 12.289 15.4705 12.289C15.3228 12.289 15.1886 12.2914 15.0688 12.2958C14.949 12.3002 14.6947 12.3216 14.3067 12.3584C14.0941 11.6545 13.9463 11.1773 13.8634 10.9269C13.7157 10.4633 13.5448 9.99535 13.3507 9.52297L11.8267 9.48127H10.1362L10.067 9.67768C9.86359 10.2667 9.71119 10.7059 9.60983 10.9953C9.41604 11.5662 9.27749 12.0199 9.19418 12.3564C9.04955 12.3278 8.9035 12.3069 8.75665 12.2939C8.66887 12.2895 8.59723 12.287 8.54199 12.287C8.32313 12.2888 8.10496 12.312 7.89062 12.3564" fill="#292F36"/>
<path d="M17.7572 2.85046C18.376 2.85046 18.8563 2.85513 19.1983 2.86445C20.9162 2.91091 21.8675 2.93404 22.0524 2.93386C22.6802 2.93386 23.4746 2.91996 24.4355 2.89216C25.3964 2.86436 26.0383 2.85046 26.3612 2.85046C26.3612 3.11034 26.3521 3.3468 26.3338 3.55986C26.2689 4.29139 26.2366 4.68531 26.2368 4.74164L26.1952 7.98111C26.1952 8.58462 26.2043 9.13152 26.2225 9.62183C26.2871 11.3276 26.3193 12.2405 26.3193 12.3607C26.1624 12.3607 25.9523 12.3486 25.689 12.3245C25.4258 12.3003 25.2664 12.2881 25.211 12.288C25.0351 12.288 24.7973 12.3001 24.4976 12.3245C24.1979 12.3488 24.0247 12.3608 23.978 12.3607L24.1027 10.4421C24.1027 9.11689 24.1073 7.98605 24.1164 7.04951C24.1255 6.11298 24.1346 5.3157 24.1437 4.6577L24.1574 4.00426C23.8342 4.00426 23.5709 3.9996 23.3677 3.99027C22.5643 3.9537 22.1209 3.93541 22.0376 3.93541C21.7144 3.93541 21.2987 3.94702 20.7907 3.97025C20.2826 3.99347 19.9916 4.00509 19.9178 4.00509V9.45477C19.9178 9.83534 19.934 10.3662 19.9665 11.0472C19.9989 11.7283 20.015 12.1661 20.0149 12.3607C19.8668 12.3607 19.6613 12.3486 19.3982 12.3245C19.1352 12.3003 18.9758 12.2881 18.9202 12.288C18.7447 12.288 18.5115 12.3001 18.2207 12.3245C17.93 12.3488 17.7568 12.3608 17.7012 12.3607C17.7012 11.8422 17.7194 11.2074 17.7559 10.4563C17.839 8.76027 17.8806 7.69417 17.8806 7.258C17.8806 6.64644 17.8714 6.09496 17.8532 5.60356C17.7885 3.87954 17.7561 2.96184 17.7561 2.85046" fill="#292F36"/>
<path d="M30.0181 8.54912L29.9765 8.67421H32.512C32.1426 7.6552 31.7315 6.57565 31.2787 5.43557C31.0386 6.00122 30.8193 6.52481 30.6208 7.00634C30.4223 7.48786 30.2217 8.00213 30.0192 8.54912M27.3713 12.3573V12.2462L28.3968 9.86861C28.9417 8.63599 29.4474 7.44726 29.9139 6.30243C30.3804 5.15759 30.8353 3.978 31.2784 2.76367C31.3605 2.78315 31.4565 2.79988 31.5626 2.8147C31.6429 2.82707 31.7239 2.8344 31.8051 2.83664C31.9002 2.83867 31.9953 2.83132 32.0889 2.8147L32.3315 2.76367L32.4286 3.00014C32.8349 4.06597 33.2229 5.0763 33.5924 6.03112C34.0447 7.18035 34.4465 8.19068 34.7978 9.06211C35.0931 9.79363 35.5133 10.7995 36.0584 12.0796L36.1279 12.2324V12.3575C35.9523 12.3575 35.8091 12.353 35.6983 12.3438C35.2456 12.3072 34.9962 12.289 34.9501 12.289C34.8024 12.289 34.6682 12.2914 34.5484 12.2958C34.4286 12.3002 34.1743 12.3216 33.7863 12.3584C33.5737 11.6545 33.426 11.1773 33.343 10.9269C33.1953 10.4633 33.0244 9.99535 32.8303 9.52297L31.3063 9.48127H29.6158L29.5467 9.67768C29.3432 10.2667 29.1904 10.7059 29.0883 10.9953C28.8944 11.5662 28.7558 12.0199 28.6727 12.3564C28.5281 12.3278 28.382 12.3069 28.2352 12.2939C28.1474 12.2895 28.0757 12.287 28.0205 12.287C27.8016 12.2888 27.5835 12.312 27.3691 12.3564" fill="#292F36"/>
<path d="M38.1804 11.3012C38.4386 11.3012 38.8796 11.3104 39.5037 11.3287C40.1277 11.347 40.4948 11.3561 40.6051 11.3561H41.5349C41.8683 11.3614 42.2016 11.3431 42.5324 11.3012C42.4214 10.8563 42.2597 10.3374 42.0473 9.74447C41.9179 9.39242 41.7886 9.0358 41.6596 8.67461C41.4747 8.14627 41.2669 7.58098 41.0361 6.97875C40.9065 6.63621 40.7032 6.12195 40.4263 5.43596C40.2137 5.91822 40.0059 6.41401 39.8028 6.92334C39.5704 7.49832 39.3576 8.04029 39.1643 8.54924C38.8963 9.22591 38.7069 9.71237 38.5961 10.0086C38.4238 10.4278 38.2848 10.8601 38.1804 11.3012ZM44.9003 11.3012L45.4822 11.3561C45.4249 11.5974 45.3974 11.8449 45.4001 12.0929C45.4008 12.3913 45.4282 12.6889 45.4822 12.9823H45.2744C45.0023 12.6544 44.6158 12.4432 44.1937 12.3917C43.4078 12.2949 42.616 12.2554 41.8245 12.2734H40.9653C39.7366 12.2734 38.9607 12.2826 38.6376 12.3009C37.5384 12.3656 36.8274 12.5926 36.5047 12.9817H36.2969C36.3209 12.8532 36.3371 12.7233 36.3453 12.5928C36.3593 12.4166 36.3662 12.2499 36.3661 12.0924C36.3676 11.9717 36.363 11.851 36.3521 11.7308C36.3428 11.6474 36.3246 11.5223 36.2974 11.3556H36.907L37.5444 9.86764C38.0891 8.63502 38.5948 7.44629 39.0615 6.30145C39.5282 5.15661 39.983 3.97703 40.426 2.7627C40.5081 2.78217 40.6038 2.79891 40.7101 2.81372C40.7905 2.8261 40.8715 2.83343 40.9527 2.83567C41.0478 2.83769 41.1429 2.83034 41.2365 2.81372L41.4791 2.7627L41.5762 2.99834C42.075 4.31033 42.6153 5.6962 43.1972 7.15596C43.7512 8.54184 44.3193 9.92323 44.9014 11.3001" fill="#292F36"/>
<path d="M46.7293 2.84778C46.8859 2.84778 47.0983 2.85994 47.3664 2.88426C47.6346 2.90859 47.7963 2.92075 47.8516 2.92075C48.0178 2.92075 48.2348 2.90859 48.5026 2.88426C48.7705 2.85994 48.9321 2.84778 48.9875 2.84778C48.9875 3.09833 48.9713 3.45074 48.9391 3.90502C48.9068 4.35929 48.8907 4.6519 48.8907 4.78285V6.66058C49.1304 6.66058 49.5345 6.66972 50.1029 6.68801C50.6713 6.7063 50.9784 6.71545 51.0242 6.71545C51.2736 6.71545 51.6777 6.7063 52.2367 6.68801C52.7956 6.66972 53.0935 6.66058 53.1303 6.66058L53.1164 4.69945C53.1164 4.42092 53.1108 4.19369 53.0997 4.01776C53.0554 3.31275 53.0332 2.92322 53.0332 2.84915C53.1909 2.84915 53.4069 2.86131 53.681 2.88563C53.9552 2.90996 54.1203 2.92212 54.1763 2.92212C54.3154 2.92212 54.5244 2.90996 54.8033 2.88563C55.0822 2.86131 55.2589 2.84915 55.3332 2.84915C55.3332 3.10866 55.3241 3.34503 55.3059 3.55827C55.2412 4.29108 55.2089 4.6851 55.2091 4.74033L55.1675 7.98144C55.1675 8.58495 55.1766 9.13213 55.1949 9.62299C55.2594 11.3289 55.2918 12.2422 55.292 12.3629C55.1348 12.3629 54.9246 12.3508 54.6614 12.3264C54.3981 12.3021 54.2388 12.29 54.1834 12.2902C54.0078 12.2902 53.77 12.3023 53.4699 12.3264C53.1699 12.3506 52.9967 12.3627 52.9504 12.3629L53.0324 10.4427L53.1144 8.44011V7.77049L51.0015 7.72906L48.8888 7.77049V9.45373C48.8888 9.83394 48.9049 10.3648 48.9372 11.0462C48.9694 11.7276 48.9856 12.1658 48.9856 12.3607C48.8377 12.3607 48.6323 12.3486 48.3692 12.3242C48.1061 12.2999 47.9468 12.2878 47.8912 12.288C47.7153 12.288 47.482 12.3001 47.1914 12.3242C46.9008 12.3484 46.7277 12.3605 46.6719 12.3607C46.6719 11.8413 46.6901 11.2061 46.7266 10.455C46.8097 8.75841 46.8513 7.69212 46.8513 7.25613C46.8513 6.64403 46.8421 6.09219 46.8239 5.6006C46.7608 3.87621 46.7293 2.9586 46.7293 2.84778Z" fill="#292F36"/>
<path d="M67.1082 2.84787C67.1082 3.05196 67.099 3.2791 67.0808 3.52929C67.0345 4.15108 67.0113 4.54062 67.0111 4.6979C67.0111 5.00404 66.9972 5.45841 66.9695 6.061C66.9418 6.6636 66.9281 7.11788 66.9285 7.42384C66.9285 7.73894 66.9422 8.21654 66.9695 8.85662C66.9969 9.4967 67.0107 9.97887 67.0111 10.3031C67.0111 10.4699 67.0343 10.8964 67.0808 11.5826C67.0991 11.8613 67.1082 12.1205 67.1082 12.3616C66.9603 12.3616 66.7549 12.354 66.4918 12.3389C66.2287 12.3237 66.0694 12.3163 66.0138 12.3166C65.6441 12.3166 65.2376 12.3316 64.7945 12.3616C64.7945 11.8422 64.8127 11.207 64.8492 10.4559C64.9323 8.75933 64.9737 7.69304 64.9733 7.25705V4.71079C64.9733 4.45128 64.9674 4.19397 64.9555 3.93885C64.9437 3.68373 64.9082 3.31979 64.8492 2.84705C65.0059 2.84705 65.2183 2.85921 65.4863 2.88353C65.7543 2.90785 65.916 2.92002 65.9714 2.92002C66.1377 2.92002 66.3547 2.90785 66.6225 2.88353C66.8903 2.85921 67.0519 2.84705 67.1073 2.84705M59.4318 7.75741L59.3899 9.43078V11.5793C59.5917 11.5793 59.7478 11.5745 59.8581 11.565C60.0068 11.5492 60.154 11.5217 60.2983 11.4827C60.4924 11.4346 60.6745 11.3468 60.8331 11.2248C60.9918 11.1029 61.1237 10.9493 61.2204 10.7739C61.3993 10.4172 61.4847 10.0207 61.4684 9.6217C61.4727 9.30534 61.4259 8.99037 61.3298 8.68901C61.2397 8.41457 61.0711 8.17281 60.845 7.99388C60.7305 7.90424 60.5982 7.84043 60.4569 7.80679C60.2838 7.77069 60.1071 7.75422 59.9303 7.75769L59.4318 7.75741ZM59.4457 6.99288L60.2907 6.96544C60.5401 6.96544 60.7894 6.96773 61.0386 6.9723C61.2904 6.97764 61.5411 7.00797 61.787 7.06283C62.3227 7.17058 62.8062 7.45741 63.1584 7.87647C63.5029 8.29681 63.685 8.82753 63.6714 9.37152C63.6775 9.75547 63.6237 10.138 63.512 10.5053C63.3958 10.8505 63.1989 11.1628 62.9377 11.416C62.6316 11.7417 62.251 11.9876 61.8289 12.1326C61.3742 12.2888 60.8965 12.3664 60.4159 12.3619L58.5176 12.3169L57.3125 12.3619C57.3526 12.0086 57.3734 11.6534 57.3748 11.2978C57.3792 10.8852 57.3815 10.6001 57.3817 10.4425L57.423 6.6176C57.423 6.50604 57.4069 6.01921 57.3748 5.15711C57.3428 4.29501 57.3264 3.6135 57.3259 3.11259V2.84787C57.4812 2.84787 57.6909 2.86003 57.9548 2.88435C58.2188 2.90868 58.3784 2.92084 58.4337 2.92084C58.5977 2.92084 58.8122 2.90868 59.0771 2.88435C59.342 2.86003 59.502 2.84787 59.5573 2.84787C59.5573 3.12603 59.5391 3.56659 59.5026 4.16955C59.4661 4.77251 59.4479 5.16196 59.4479 5.33789L59.4457 6.99288Z" fill="#292F36"/>
<path d="M75.5193 0.807236C75.3427 1.23224 75.0498 1.59847 74.6746 1.86365C74.2712 2.13986 73.7911 2.28093 73.303 2.26663C72.8191 2.27956 72.3437 2.13849 71.9447 1.86365C71.5675 1.59699 71.2705 1.23157 71.0861 0.807236L71.5299 0.571045C71.7256 0.860859 71.9936 1.09419 72.3072 1.24782C72.6208 1.40144 72.969 1.47001 73.3172 1.44668C73.6729 1.45355 74.0257 1.37994 74.3492 1.23134C74.65 1.08651 74.9023 0.857108 75.0755 0.571045L75.5193 0.807236ZM77.5975 12.3606C77.4334 12.3346 77.268 12.3177 77.102 12.3098C76.8729 12.2953 76.6426 12.2879 76.4135 12.2879L75.4077 12.3428L75.312 12.3565C75.312 12.0602 75.335 11.319 75.3809 10.1328C75.3992 9.66025 75.4083 9.21548 75.4083 8.79851V7.53444L75.367 5.67206C75.0897 6.00564 74.831 6.32065 74.5909 6.6171C74.2859 6.99713 73.9857 7.3863 73.6902 7.78462C73.2838 8.32229 72.739 9.0636 72.0557 10.0085C71.0669 11.3706 70.4988 12.1536 70.3513 12.3573C70.1507 12.3144 69.9465 12.2912 69.7415 12.2879C69.6159 12.2886 69.4907 12.3025 69.368 12.3296L69.2154 12.357V8.00709C69.2154 7.5808 69.2037 7.12213 69.1804 6.63109C69.157 6.14006 69.1409 5.72766 69.132 5.3939C69.132 5.19035 69.1228 4.97263 69.1046 4.74074C69.0581 4.14802 69.0352 3.77741 69.0357 3.62891L68.9941 2.86438L70.1301 2.91924L71.2663 2.84956L71.2523 3.11374C71.2523 3.29918 71.2361 3.57716 71.2036 3.94768C71.1712 4.31819 71.155 4.60084 71.155 4.79561V9.39599C71.4886 8.99767 71.8917 8.50197 72.3642 7.90889C72.5862 7.62176 72.8131 7.33455 73.0448 7.04724C73.5635 6.38009 74.0775 5.70599 74.5868 5.02494C75.0962 4.34389 75.6196 3.61876 76.157 2.84956C76.362 2.89332 76.5709 2.91666 76.7805 2.91924C76.9901 2.91662 77.1989 2.89328 77.4039 2.84956L77.3624 3.50327V5.74174C77.3624 7.06727 77.3776 8.22856 77.408 9.22563C77.4385 10.2227 77.5017 11.2677 77.5975 12.3606Z" fill="#292F36"/>
<path d="M32.2902 25.3202L32.4704 25.3896L32.1655 26.5711C31.7537 26.7802 31.3156 26.9321 30.863 27.0226C30.3889 27.1203 29.9061 27.1692 29.4222 27.1686C29.0473 27.1724 28.6726 27.1492 28.301 27.0992C28.2735 27.0896 28.0426 27.0433 27.6084 26.9601C27.3477 26.8968 27.0946 26.806 26.8531 26.689C26.5991 26.575 26.3537 26.4426 26.1188 26.2929C25.9114 26.1561 25.719 25.9978 25.5446 25.8205C25.3813 25.6542 25.2286 25.4777 25.0874 25.2922C24.7982 24.906 24.5757 24.4738 24.4295 24.0136C24.2827 23.5365 24.2102 23.0395 24.2145 22.5402C24.1973 21.7836 24.317 21.0302 24.5678 20.3165C24.836 19.6503 25.2613 19.0593 25.8071 18.5941C26.3249 18.1481 26.932 17.8187 27.5876 17.6282C28.2819 17.4188 29.0032 17.3134 29.7282 17.3155C30.2273 17.3167 30.7246 17.375 31.2106 17.4891C31.6782 17.5937 32.1301 17.7598 32.5546 17.9829C32.5081 18.1683 32.455 18.393 32.3952 18.6569C32.3354 18.9208 32.2822 19.1687 32.2357 19.4006H32.0419C31.7832 19.03 31.4415 18.7253 31.0443 18.511C30.6455 18.2905 30.1972 18.1757 29.7418 18.1774C29.2493 18.1593 28.7606 18.2719 28.3253 18.5037C27.8899 18.7355 27.5231 19.0784 27.2619 19.4977C26.7305 20.3501 26.4652 21.3423 26.4998 22.3471C26.4978 22.8607 26.5631 23.3724 26.6939 23.869C26.8143 24.3371 27.0262 24.7765 27.3174 25.1616C27.6055 25.5385 27.981 25.8391 28.4112 26.0373C28.8488 26.2444 29.3269 26.3513 29.8107 26.35C30.264 26.3441 30.7116 26.2472 31.1269 26.065C31.5564 25.8898 31.9507 25.6379 32.2907 25.3215" fill="#292F36"/>
<path d="M33.9679 26.9882L34.0647 24.4826V20.2926L33.9827 17.467C34.1396 17.467 34.3544 17.4809 34.6269 17.5087C34.8995 17.5365 35.0635 17.5504 35.1191 17.5504C35.4762 17.5511 35.8328 17.5235 36.1856 17.4681L36.0749 20.5814V21.874C36.7955 21.0375 37.4005 20.3172 37.8898 19.7129C38.4996 18.9695 39.0769 18.2212 39.6218 17.4681C39.8728 17.5187 40.1277 17.5463 40.3837 17.5504C40.6444 17.5487 40.9044 17.5211 41.1597 17.4681L41.1458 17.5792L38.8873 20.0152C38.6839 20.238 38.5269 20.4097 38.4164 20.5304L37.6532 21.4469L41.297 26.8195V26.9868C41.1214 26.9868 40.8883 26.9752 40.5975 26.952C40.3067 26.9288 40.1335 26.9172 40.0779 26.9172C39.6798 26.92 39.282 26.9433 38.8862 26.9868L37.5425 24.8746L36.0738 22.6375L36.1558 26.9879C35.9987 26.9879 35.7862 26.9763 35.5184 26.9531C35.2506 26.9299 35.089 26.9183 35.0335 26.9183C34.8762 26.9183 34.6707 26.9299 34.4169 26.9531C34.1631 26.9763 34.0131 26.9879 33.9668 26.9879" fill="#292F36"/>
<path d="M46.644 26.4179C47.1577 26.4298 47.6628 26.2843 48.0919 26.0009C48.528 25.6948 48.8863 25.2901 49.1379 24.8196C49.3567 24.4031 49.5109 23.9554 49.5951 23.4922C49.6892 22.9856 49.7356 22.4713 49.7337 21.956C49.7642 21.0437 49.5334 20.1418 49.0687 19.3571C48.8438 18.9621 48.5162 18.6358 48.1209 18.4131C47.7256 18.1903 47.2774 18.0794 46.8242 18.0922C46.5375 18.0851 46.251 18.1154 45.9721 18.1824C45.7128 18.2648 45.4708 18.3944 45.2584 18.5648C44.8569 18.8527 44.5312 19.2343 44.3095 19.6767C44.0951 20.1227 43.9477 20.5982 43.872 21.0875C43.7879 21.6136 43.7462 22.1457 43.7473 22.6786C43.7137 23.5737 43.9451 24.4587 44.4123 25.2221C44.6449 25.602 44.9741 25.9129 45.3661 26.123C45.7581 26.333 46.1988 26.4346 46.6429 26.4173M52.0324 22.2202C52.0347 22.9233 51.8908 23.6191 51.6099 24.2633C51.3338 24.9044 50.9169 25.4747 50.3903 25.9315C49.8847 26.3802 49.293 26.7208 48.6517 26.9322C47.9792 27.1427 47.2779 27.2459 46.5734 27.2381C45.8698 27.241 45.1704 27.1288 44.5028 26.9059C43.862 26.6953 43.2787 26.3385 42.7987 25.8634C42.339 25.4154 41.9861 24.869 41.7664 24.265C41.5464 23.626 41.4386 22.9535 41.4478 22.2775C41.4437 21.5749 41.5853 20.8791 41.8635 20.2344C42.1381 19.5988 42.5554 19.0355 43.0828 18.5884C43.5968 18.142 44.1952 17.804 44.8422 17.5946C45.5105 17.386 46.2069 17.2828 46.9068 17.2887C47.4891 17.2852 48.0692 17.36 48.6317 17.5112C49.1662 17.6568 49.6705 17.8968 50.1209 18.22C50.4513 18.4367 50.7498 18.6986 51.0077 18.9983C51.2588 19.2985 51.4618 19.6361 51.6093 19.999C51.756 20.3502 51.8651 20.716 51.935 21.0902C52.001 21.4641 52.0334 21.8432 52.0318 22.2229" fill="#292F36"/>
<path d="M55.6103 18.2593L55.5964 19.9327V21.1046L55.5548 22.1089C55.7579 22.1089 55.915 22.1042 56.026 22.0949C56.1756 22.0791 56.3239 22.0516 56.4692 22.0126C56.6659 21.964 56.8503 21.8746 57.0105 21.7502C57.1706 21.6257 57.303 21.469 57.399 21.29C57.5779 20.9278 57.6636 20.5265 57.6484 20.1225C57.6525 19.8066 57.6057 19.4921 57.5097 19.1912C57.4198 18.9167 57.2512 18.675 57.0249 18.4963C56.9106 18.4064 56.7782 18.3424 56.6369 18.3087C56.4638 18.2727 56.2872 18.2563 56.1105 18.2599H55.6103V18.2593ZM53.435 17.4811L54.7235 17.5228C54.9268 17.5228 55.2617 17.5136 55.7282 17.4953C56.1947 17.477 56.4417 17.4679 56.4692 17.4679C56.7186 17.4679 56.968 17.4703 57.2174 17.475C57.4692 17.4799 57.7198 17.5101 57.9656 17.5653C58.5013 17.6729 58.9849 17.9595 59.3372 18.3784C59.6818 18.7983 59.8638 19.3289 59.85 19.8726C59.8558 20.2559 59.802 20.6378 59.6903 21.0045C59.573 21.3511 59.3764 21.6653 59.116 21.9218C58.8652 22.1861 58.5635 22.3965 58.2292 22.5404C57.888 22.664 57.5352 22.7525 57.1761 22.8043C56.977 22.8361 56.7761 22.8544 56.5745 22.8591C56.3301 22.8687 56.1936 22.8731 56.166 22.8731H55.5562C55.5562 23.1974 55.5608 23.5219 55.5701 23.8467C55.5794 24.1715 55.5885 24.4915 55.5975 24.8068C55.5975 25.0574 55.6113 25.4237 55.639 25.9058C55.6667 26.3878 55.6806 26.7495 55.6806 26.9907C55.5422 26.9907 55.3344 26.9785 55.0571 26.9542C54.7798 26.9299 54.6044 26.9178 54.5307 26.918C54.3645 26.918 54.1474 26.9301 53.8796 26.9542C53.6118 26.9784 53.4501 26.9905 53.3945 26.9907L53.4916 26.2542C53.4916 26.0314 53.4985 25.7388 53.5124 25.3763C53.5262 25.0139 53.5332 24.8007 53.5332 24.7369V22.6265C53.5332 22.2002 53.5262 21.4912 53.5124 20.4994C53.4985 19.5077 53.4916 18.9746 53.4916 18.9001V18.5517C53.4915 18.1944 53.4733 17.8373 53.4369 17.4819" fill="#292F36"/>
<path d="M65.8895 26.4179C66.4031 26.4297 66.9081 26.2843 67.3372 26.0009C67.7737 25.6954 68.1326 25.2912 68.3848 24.821C68.6033 24.4043 68.7574 23.9567 68.842 23.4936C68.936 22.987 68.9824 22.4727 68.9804 21.9574C69.0111 21.0451 68.7803 20.1431 68.3153 19.3584C68.0905 18.9634 67.7629 18.6371 67.3676 18.4143C66.9723 18.1915 66.5241 18.0807 66.0708 18.0935C65.7841 18.0865 65.4977 18.1168 65.2187 18.1838C64.9595 18.2662 64.7177 18.3958 64.5053 18.5662C64.1037 18.8541 63.7779 19.2357 63.5561 19.678C63.3418 20.1241 63.1944 20.5995 63.1186 21.0889C63.0346 21.615 62.9929 22.1471 62.9939 22.6799C62.9604 23.575 63.1918 24.4601 63.659 25.2235C63.8916 25.6034 64.2209 25.9143 64.6129 26.1244C65.005 26.3344 65.4457 26.436 65.8898 26.4187M71.2796 22.2215C71.2816 22.9246 71.1377 23.6204 70.8571 24.2647C70.5809 24.9057 70.164 25.4758 69.6375 25.9326C69.1317 26.3814 68.54 26.7219 67.8986 26.9333C67.2261 27.1439 66.5248 27.2471 65.8203 27.2392C65.1164 27.2419 64.4167 27.1293 63.7489 26.9059C63.1081 26.6953 62.5248 26.3385 62.0448 25.8634C61.585 25.4155 61.2321 24.869 61.0125 24.265C60.7925 23.626 60.6847 22.9535 60.6939 22.2775C60.6897 21.5749 60.8312 20.8791 61.1096 20.2344C61.3842 19.5989 61.8014 19.0356 62.3286 18.5884C62.8427 18.142 63.4412 17.804 64.0883 17.5946C64.7565 17.3861 65.4529 17.2829 66.1526 17.2887C66.7351 17.2852 67.3154 17.3601 67.8781 17.5112C68.4124 17.6571 68.9167 17.8971 69.3673 18.22C69.6974 18.4369 69.9958 18.6988 70.2538 18.9983C70.5049 19.2985 70.7079 19.6361 70.8554 19.999C71.0018 20.3503 71.1107 20.716 71.1806 21.0902C71.2468 21.4641 71.2794 21.8432 71.2779 22.2229" fill="#292F36"/>
<path d="M80.2709 25.3201L80.4511 25.3895L80.1459 26.571C79.7344 26.78 79.2964 26.9319 78.844 27.0225C78.3698 27.1202 77.887 27.1691 77.4029 27.1684C77.028 27.1723 76.6533 27.1491 76.2818 27.099C76.2539 27.0895 76.0229 27.0432 75.5888 26.96C75.3284 26.8967 75.0754 26.8058 74.8341 26.6889C74.58 26.5748 74.3344 26.4424 74.0993 26.2928C73.8918 26.1561 73.6994 25.9977 73.5251 25.8204C73.3614 25.6542 73.2085 25.4778 73.0673 25.2921C72.7782 24.9059 72.5559 24.4736 72.4097 24.0135C72.263 23.5363 72.1906 23.0394 72.195 22.5401C72.1777 21.7836 72.2972 21.0302 72.5478 20.3164C72.8161 19.6497 73.2418 19.0583 73.7881 18.5929C74.306 18.1469 74.9131 17.8175 75.5686 17.627C76.2629 17.4175 76.9842 17.3121 77.7092 17.3142C78.2083 17.3155 78.7056 17.3738 79.1916 17.4879C79.6592 17.5926 80.1111 17.7586 80.5356 17.9817C80.4895 18.1671 80.4363 18.3918 80.3762 18.6557C80.316 18.9196 80.263 19.1675 80.217 19.3994H80.0226C79.7641 19.0287 79.4225 18.724 79.0253 18.5097C78.6266 18.2893 78.1784 18.1745 77.7231 18.1762C77.2305 18.1581 76.7418 18.2706 76.3064 18.5024C75.871 18.7342 75.5041 19.0771 75.2429 19.4965C74.7116 20.3489 74.4461 21.3411 74.4805 22.3459C74.4788 22.8595 74.5441 23.3711 74.6747 23.8678C74.7951 24.3358 75.007 24.7752 75.2981 25.1604C75.5864 25.5371 75.9619 25.8376 76.392 26.036C76.8296 26.2432 77.3076 26.35 77.7915 26.3488C78.2449 26.3429 78.6925 26.246 79.1079 26.0637C79.5374 25.8885 79.9317 25.6366 80.2717 25.3203" fill="#292F36"/>
<path d="M85.8821 18.5096L85.8548 19.5246L85.8132 22.9868L85.8548 24.7666C85.8548 25.1099 85.8615 25.5457 85.875 26.074C85.8885 26.6024 85.8956 26.9082 85.8963 26.9914C85.7388 26.9914 85.5241 26.9793 85.2521 26.9552C84.9786 26.9305 84.8145 26.9184 84.7599 26.9184C84.5936 26.9184 84.3766 26.9306 84.1088 26.9552C83.8402 26.9793 83.6792 26.9914 83.6237 26.9914C83.6237 26.7319 83.6444 26.3705 83.686 25.9072C83.7276 25.444 83.7483 25.1474 83.7481 25.0173C83.7481 24.2847 83.7551 23.3576 83.7691 22.236C83.7832 21.1144 83.7901 20.4702 83.7899 20.3034L83.7481 18.5096C83.6099 18.5096 83.3814 18.5187 83.0625 18.537C82.7437 18.5553 82.5705 18.5645 82.543 18.5645L81.1992 18.7033C81.2487 18.5081 81.272 18.3072 81.2684 18.1058V17.8833C81.2536 17.8054 81.2445 17.7264 81.2411 17.6471L81.1995 17.4803L82.2386 17.5078C82.5246 17.5078 83.0049 17.5169 83.6794 17.5352C84.354 17.5535 84.7142 17.5626 84.7601 17.5626H86.1867C86.5193 17.5626 86.7871 17.5572 86.9901 17.5462C87.8121 17.5017 88.2602 17.4794 88.3342 17.4792C88.3068 17.6367 88.2901 17.741 88.2858 17.792C88.2814 17.843 88.2787 17.9239 88.2787 18.035C88.276 18.2586 88.2943 18.482 88.3333 18.7022C87.5219 18.5756 86.7022 18.5106 85.881 18.5077" fill="#292F36"/>
<path d="M89.6359 17.4775C89.7934 17.4775 90.0058 17.4897 90.273 17.514C90.5407 17.5382 90.7026 17.5508 90.7581 17.5508C90.9246 17.5508 91.141 17.5382 91.4095 17.514C91.678 17.4899 91.8391 17.4775 91.8938 17.4775C91.8938 17.7279 91.8777 18.0804 91.8456 18.5351C91.8135 18.9897 91.7974 19.2818 91.7972 19.4112V21.2892C92.037 21.2892 92.4411 21.2984 93.0097 21.3167C93.5783 21.335 93.8855 21.3441 93.9313 21.3441C94.1807 21.3441 94.5846 21.335 95.1432 21.3167C95.7018 21.2984 95.9998 21.2892 96.0371 21.2892L96.0229 19.3278C96.0229 19.0497 96.0174 18.8225 96.0065 18.6462C95.9626 17.9413 95.9404 17.5518 95.9401 17.4775C96.0984 17.4775 96.3139 17.4896 96.5881 17.514C96.8624 17.5384 97.0257 17.5508 97.0831 17.5508C97.2229 17.5508 97.4318 17.5385 97.7098 17.514C97.9879 17.4895 98.1645 17.4774 98.2398 17.4775C98.2398 17.7372 98.2307 17.9736 98.2125 18.1867C98.1488 18.9193 98.1167 19.3134 98.1159 19.369L98.0746 22.6098C98.0746 23.2133 98.0838 23.7605 98.102 24.2514C98.1663 25.9575 98.1986 26.8708 98.1988 26.9913C98.0416 26.9913 97.832 26.9791 97.5698 26.9548C97.3077 26.9305 97.1481 26.9184 97.091 26.9186C96.916 26.9186 96.6784 26.9307 96.3781 26.9548C96.0779 26.979 95.9047 26.9911 95.8586 26.9913L95.9406 25.071L96.0226 23.0685V22.4011L93.9097 22.3597L91.797 22.4011V24.0843C91.797 24.4649 91.8131 24.9957 91.8454 25.6768C91.8776 26.3578 91.8937 26.796 91.8935 26.9913C91.7461 26.9913 91.5405 26.9792 91.2777 26.9548C91.0149 26.9304 90.8546 26.9186 90.7989 26.9186C90.6239 26.9186 90.3908 26.9307 90.0996 26.9548C89.8085 26.979 89.6353 26.9911 89.5801 26.9913C89.5801 26.4719 89.5983 25.8368 89.6348 25.0859C89.7183 23.3889 89.7598 22.3225 89.7595 21.8867C89.7595 21.275 89.7503 20.7232 89.7321 20.2315C89.6672 18.5069 89.635 17.5889 89.6353 17.4775" fill="#292F36"/>
<path d="M104.876 26.4179C105.39 26.4299 105.896 26.2845 106.325 26.0009C106.761 25.695 107.118 25.2909 107.37 24.821C107.588 24.4043 107.742 23.9567 107.827 23.4936C107.921 22.987 107.967 22.4726 107.965 21.9574C107.996 21.0451 107.765 20.1431 107.3 19.3584C107.075 18.9637 106.748 18.6376 106.353 18.4148C105.958 18.1921 105.51 18.081 105.057 18.0935C104.771 18.0864 104.484 18.1168 104.205 18.1838C103.946 18.2662 103.704 18.3958 103.491 18.5662C103.09 18.8539 102.764 19.2355 102.542 19.678C102.328 20.1241 102.18 20.5995 102.105 21.0889C102.021 21.6151 101.98 22.1471 101.98 22.6799C101.947 23.575 102.178 24.46 102.645 25.2235C102.878 25.6034 103.207 25.9143 103.599 26.1244C103.991 26.3344 104.432 26.436 104.876 26.4187M110.266 22.2215C110.268 22.9246 110.124 23.6204 109.843 24.2647C109.567 24.9057 109.15 25.4758 108.624 25.9326C108.118 26.3812 107.527 26.7217 106.886 26.9333C106.213 27.1438 105.512 27.247 104.807 27.2392C104.103 27.242 103.403 27.1294 102.735 26.9059C102.094 26.6957 101.511 26.3388 101.031 25.8634C100.571 25.4158 100.218 24.8693 99.9985 24.265C99.7787 23.6259 99.6711 22.9535 99.6802 22.2775C99.6759 21.5749 99.8174 20.8791 100.096 20.2344C100.37 19.5989 100.787 19.0356 101.314 18.5884C101.829 18.1421 102.427 17.8041 103.074 17.5946C103.742 17.386 104.439 17.2828 105.139 17.2887C105.721 17.2852 106.301 17.36 106.864 17.5112C107.398 17.657 107.903 17.8971 108.353 18.22C108.683 18.4367 108.982 18.6986 109.24 18.9983C109.491 19.2987 109.694 19.6362 109.841 19.999C109.988 20.3503 110.097 20.7161 110.167 21.0902C110.233 21.4642 110.265 21.8432 110.264 22.2229" fill="#292F36"/>
<path d="M118.177 15.4393C118.001 15.8646 117.708 16.2308 117.332 16.4955C116.925 16.7587 116.452 16.8987 115.967 16.8987C115.483 16.8987 115.009 16.7587 114.603 16.4955C114.225 16.2291 113.928 15.8637 113.744 15.4393L114.188 15.2029C114.383 15.4927 114.651 15.7261 114.965 15.8797C115.278 16.0334 115.627 16.1019 115.975 16.0785C116.331 16.0853 116.683 16.0117 117.007 15.8632C117.308 15.7187 117.561 15.4892 117.734 15.2029L118.177 15.4393ZM120.256 26.9927C120.092 26.9666 119.926 26.9496 119.76 26.9417C119.531 26.9272 119.301 26.9199 119.071 26.9197L118.066 26.9746L117.97 26.9886C117.97 26.6923 117.993 25.951 118.039 24.7647C118.057 24.2919 118.066 23.8471 118.066 23.4303V22.1649L118.025 20.3025C117.748 20.6361 117.489 20.9511 117.249 21.2476C116.944 21.6278 116.644 22.0169 116.349 22.4151C115.942 22.9528 115.397 23.6941 114.714 24.639C113.725 26.0009 113.157 26.7839 113.009 26.988C112.809 26.9451 112.605 26.9218 112.4 26.9184C112.274 26.919 112.149 26.933 112.026 26.96L111.874 26.9875V22.6376C111.874 22.2116 111.862 21.753 111.839 21.2616C111.816 20.7702 111.799 20.3578 111.79 20.0246C111.79 19.8207 111.781 19.6029 111.763 19.3712C111.717 18.7783 111.694 18.4077 111.694 18.2594L111.652 17.4948L112.789 17.5497L113.924 17.4803L113.911 17.7442C113.911 17.9296 113.895 18.2076 113.862 18.5781C113.829 18.9487 113.813 19.2313 113.813 19.4261V24.0275C114.147 23.6292 114.55 23.1334 115.023 22.5402C115.245 22.2532 115.472 21.966 115.704 21.6785C116.222 21.0114 116.736 20.3373 117.245 19.6562C117.754 18.9752 118.278 18.2501 118.815 17.4811C119.226 17.5737 119.652 17.5737 120.062 17.4811L120.021 18.1346V20.373C120.021 21.6986 120.036 22.8598 120.067 23.8569C120.097 24.854 120.16 25.899 120.256 26.9919" fill="#292F36"/>
<path d="M52.866 40.562C53.1241 40.562 53.5652 40.5712 54.1892 40.5894C54.8132 40.6077 55.1804 40.6169 55.2907 40.6169H56.2188C56.5522 40.6222 56.8855 40.6039 57.2163 40.562C57.1055 40.1173 56.9439 39.5984 56.7315 39.0055C56.6023 38.6536 56.4729 38.297 56.3435 37.9357C56.1586 37.4075 55.9508 36.8423 55.72 36.2401C55.5906 35.8975 55.3874 35.3833 55.1105 34.6973C54.8981 35.1792 54.6903 35.6749 54.487 36.1844C54.256 36.7592 54.0436 37.3012 53.8496 37.8106C53.5816 38.4872 53.3923 38.9737 53.2816 39.27C53.1093 39.6892 52.9704 40.1214 52.866 40.5626M59.5855 40.5626L60.1675 40.6174C60.1103 40.8587 60.0828 41.106 60.0854 41.354C60.0862 41.6524 60.1136 41.9501 60.1675 42.2436H59.9596C59.6876 41.9158 59.301 41.7045 58.8789 41.653C58.0931 41.5562 57.3013 41.5167 56.5097 41.5348H55.6508C54.4223 41.5348 53.6464 41.5439 53.3232 41.5622C52.2239 41.6269 51.5129 41.854 51.1902 42.2433H50.9824C51.0067 42.1147 51.023 41.9847 51.0311 41.8541C51.0448 41.6781 51.0517 41.5114 51.0519 41.3537C51.0533 41.2331 51.0486 41.1125 51.0379 40.9924C51.0284 40.9101 51.0106 40.7839 50.9832 40.6172H51.593L52.2302 39.1292C52.7749 37.8968 53.2806 36.7081 53.7473 35.563C54.214 34.418 54.6689 33.2384 55.1121 32.0243C55.1942 32.0438 55.2896 32.0605 55.3962 32.075C55.4764 32.0875 55.5574 32.0949 55.6385 32.097C55.7337 32.0992 55.8289 32.0918 55.9226 32.075L56.1652 32.0243L56.262 32.2599C56.7608 33.5717 57.3011 34.9576 57.883 36.4176C58.4372 37.8034 59.0053 39.1847 59.5872 40.5615" fill="#292F36"/>
<path d="M69.9907 41.6219C69.8266 41.5957 69.6611 41.5786 69.4952 41.5708C69.2655 41.5564 69.0359 41.5491 68.8066 41.5489L67.8008 41.6038L67.7043 41.6177C67.7043 41.3209 67.7276 40.5796 67.774 39.3938C67.7923 38.9211 67.8014 38.4763 67.8014 38.0595V36.7946L67.7598 34.9322C67.4829 35.2658 67.2243 35.5808 66.984 35.8773C66.6792 36.2575 66.379 36.6467 66.0833 37.0448C65.6769 37.5823 65.132 38.3236 64.4486 39.2687C63.46 40.6305 62.8919 41.4135 62.7444 41.6177C62.5439 41.5746 62.3397 41.5513 62.1346 41.5481C62.0088 41.5488 61.8834 41.5627 61.7605 41.5898L61.6082 41.6172V37.2681C61.6082 36.8422 61.5966 36.3835 61.5735 35.8921C61.5503 35.4007 61.5342 34.9884 61.5251 34.6552C61.5251 34.4514 61.516 34.2336 61.4977 34.0017C61.4513 33.4088 61.4281 33.0382 61.4283 32.8899L61.3867 32.1254L62.5229 32.1802L63.6591 32.1108L63.6452 32.3747C63.6452 32.5602 63.629 32.8381 63.5968 33.2084C63.5645 33.5787 63.5483 33.8615 63.5481 34.0566V38.6567C63.8815 38.2589 64.2844 37.7633 64.7568 37.1699C64.9788 36.8829 65.2058 36.5957 65.4377 36.3082C65.9565 35.6411 66.4706 34.967 66.9799 34.2859C67.4893 33.6049 68.0126 32.8799 68.5498 32.1108C68.9604 32.2034 69.3863 32.2034 69.7968 32.1108L69.7552 32.764V35.0027C69.7552 36.3283 69.7704 37.4896 69.8009 38.4866C69.8313 39.4837 69.8946 40.5286 69.9907 41.6219Z" fill="#292F36"/>
<path d="M73.6763 37.81L73.6348 37.935H76.1702C75.8005 36.9162 75.3895 35.8368 74.9372 34.6967C74.6968 35.262 74.4773 35.7855 74.2787 36.2672C74.0802 36.7489 73.8797 37.2631 73.6772 37.81M71.0304 41.6184V41.5073L72.0561 39.1297C72.6008 37.8973 73.1065 36.7086 73.5732 35.5635C74.0399 34.4185 74.4949 33.2389 74.938 32.0248C75.0212 32.0442 75.1157 32.0611 75.2216 32.0755C75.3019 32.088 75.3829 32.0954 75.4642 32.0975C75.5595 32.0996 75.6547 32.0923 75.7486 32.0755L75.9908 32.0248L76.0876 32.261C76.4945 33.327 76.8826 34.3374 77.2517 35.2922C77.7042 36.4413 78.1059 37.4516 78.4569 38.3232C78.7525 39.0547 79.1727 40.0606 79.7175 41.3408L79.7872 41.4936V41.6186C79.6114 41.6186 79.4686 41.614 79.3576 41.6047C78.9048 41.5681 78.6553 41.5498 78.6092 41.5498C78.4615 41.5498 78.3277 41.5521 78.2077 41.5566C78.0878 41.5612 77.8337 41.5821 77.4456 41.6192C77.2331 40.9149 77.0853 40.4377 77.0023 40.1875C76.8543 39.7241 76.6834 39.2562 76.4896 38.7838L74.9654 38.7421H73.2749L73.206 38.9385C73.0025 39.5279 72.8501 39.9677 72.7488 40.2577C72.555 40.8289 72.4163 41.2827 72.3328 41.6192C72.1883 41.5902 72.0422 41.5694 71.8953 41.5566C71.8078 41.5523 71.7365 41.5498 71.6807 41.5498C71.4618 41.5515 71.2436 41.5748 71.0293 41.6192" fill="#292F36"/>
<path d="M81.2559 36.2811L81.8238 32.1115C81.9284 32.1148 82.0325 32.1264 82.1353 32.1463C82.2155 32.1622 82.2964 32.1738 82.3778 32.1811C82.4917 32.1826 82.6054 32.1734 82.7175 32.1537C82.8143 32.135 82.8903 32.1213 82.9461 32.112C83.3896 33.0849 83.7312 33.8216 83.971 34.3219C84.0634 34.5167 84.4236 35.2441 85.0517 36.5042C85.4121 37.2357 85.7767 37.9631 86.1455 38.6864L86.9628 37.0879C87.8222 35.4109 88.626 33.7523 89.3741 32.112H89.5265C89.598 32.146 89.6759 32.1647 89.7551 32.1669H89.9837C90.1746 32.1702 90.3654 32.1518 90.5522 32.112C90.7363 33.7991 90.8932 35.1707 91.0228 36.2268C91.1524 37.283 91.2494 38.0801 91.3137 38.6181L91.6463 41.0376C91.655 41.0747 91.6736 41.1627 91.701 41.3021C91.7247 41.407 91.7388 41.5139 91.7431 41.6214C91.5856 41.6214 91.3708 41.6092 91.0988 41.5849C90.8268 41.5606 90.6627 41.5485 90.6066 41.5487C90.4496 41.5487 90.2372 41.5607 89.9692 41.5849C89.7012 41.609 89.5396 41.6212 89.4843 41.6214C89.476 40.5942 89.4089 39.5684 89.2834 38.549C89.1497 37.3994 89.0228 36.2868 88.9024 35.2113C88.5504 35.9245 88.2013 36.636 87.8551 37.3458C87.5089 38.0556 87.1647 38.7625 86.8226 39.4666C86.5912 39.9486 86.2583 40.6671 85.8239 41.6219H85.2972L84.2308 39.3966C83.8791 38.6651 83.5554 37.9928 83.2597 37.3798C82.9272 36.7125 82.5946 36.0404 82.2619 35.3635L81.9682 37.8231L81.8315 39.3955L81.7352 40.7592L81.6805 41.6219C81.5373 41.5917 81.3924 41.5699 81.2466 41.5566C81.1588 41.5517 81.0877 41.5492 81.0324 41.5492C80.8192 41.5514 80.6068 41.5758 80.3986 41.6219C80.3976 41.5522 80.4021 41.4825 80.4122 41.4134C80.4335 41.3099 80.4609 41.2076 80.4943 41.1073C80.5404 40.8851 80.605 40.5376 80.6882 40.0649C80.7439 39.7126 80.8088 39.3279 80.8826 38.9108C80.9564 38.4936 81.0279 38.0254 81.097 37.506C81.1668 36.987 81.22 36.579 81.2567 36.282" fill="#292F36"/>
<path d="M93.2793 32.2922V32.1115C93.5187 32.1115 93.8826 32.1253 94.371 32.1531C94.8594 32.1809 95.228 32.1948 95.4768 32.1948C95.9185 32.1948 96.5127 32.1809 97.2595 32.1531C98.0062 32.1253 98.4528 32.1115 98.5994 32.1115C98.5606 32.3083 98.5422 32.5086 98.5447 32.7092C98.5447 32.7641 98.5469 32.8272 98.5521 32.8968C98.5573 32.9665 98.5633 33.0474 98.5729 33.1399L98.6002 33.3067C98.2491 33.3067 97.7226 33.2813 97.0207 33.2304C96.3189 33.1796 95.7924 33.1541 95.4413 33.1539L95.3866 34.5993V36.1421L98.5455 36.031C98.5272 36.1791 98.5116 36.3053 98.4974 36.4131C98.485 36.5029 98.4781 36.5934 98.4766 36.6841C98.4751 36.7818 98.482 36.8795 98.4974 36.976C98.5116 37.0503 98.5272 37.1291 98.5455 37.2125C98.2777 37.2125 97.8714 37.1916 97.3267 37.1499C96.782 37.1082 96.3664 37.0874 96.0798 37.0874H95.4008L95.3866 38.8524V40.6036C96.4605 40.5989 97.5335 40.5386 98.6013 40.4231C98.5625 40.6199 98.5441 40.8201 98.5466 41.0206C98.5466 41.0755 98.5488 41.1388 98.554 41.2082C98.5592 41.2776 98.5652 41.3591 98.5748 41.4516L98.6021 41.6184C98.325 41.6184 97.9094 41.6045 97.3552 41.5767C96.8011 41.5492 96.3803 41.535 96.0948 41.535L94.4596 41.5767L93.2266 41.6184L93.2812 40.8261L93.3502 38.2269V34.4882C93.3502 34.1362 93.3469 33.8674 93.3389 33.6819C93.3007 32.7646 93.2814 32.3014 93.2812 32.2922" fill="#292F36"/>
<path d="M104.086 33.14L104.059 34.155L104.017 37.6175L104.059 39.3973C104.059 39.7402 104.065 40.1759 104.079 40.7044C104.092 41.2329 104.099 41.5387 104.1 41.6217C103.942 41.6217 103.728 41.6097 103.455 41.5855C103.183 41.5614 103.02 41.549 102.963 41.549C102.797 41.549 102.58 41.5612 102.312 41.5855C102.044 41.6098 101.882 41.6219 101.827 41.6217C101.827 41.3626 101.848 41.0012 101.889 40.5376C101.931 40.074 101.952 39.7774 101.951 39.6477C101.951 38.9149 101.958 37.9878 101.973 36.8664C101.987 35.7449 101.994 35.1007 101.993 34.9338L101.951 33.14C101.813 33.14 101.585 33.1491 101.266 33.1674C100.946 33.1857 100.773 33.1948 100.746 33.1948L99.4023 33.3339C99.4516 33.1386 99.4748 32.9376 99.4715 32.7362V32.5137C99.4567 32.4357 99.4476 32.3568 99.4442 32.2775L99.4026 32.1107L100.442 32.1381C100.728 32.1381 101.208 32.1473 101.882 32.1656C102.557 32.1839 102.917 32.193 102.963 32.193H104.39C104.723 32.193 104.991 32.1875 105.194 32.1766C106.015 32.1323 106.463 32.11 106.538 32.1096C106.51 32.2674 106.494 32.3716 106.489 32.4223C106.484 32.4731 106.482 32.5543 106.482 32.6657C106.48 32.8893 106.498 33.1126 106.537 33.3328C105.726 33.2062 104.906 33.1411 104.085 33.1381" fill="#292F36"/>
<path d="M110.005 32.89L109.991 34.5633V35.7352L109.949 36.7395C110.153 36.7395 110.309 36.7349 110.421 36.7258C110.57 36.7098 110.718 36.6822 110.864 36.6435C111.06 36.5946 111.244 36.505 111.404 36.3805C111.564 36.2561 111.696 36.0994 111.792 35.9207C111.971 35.5585 112.057 35.1571 112.041 34.7532C112.045 34.4373 111.998 34.1228 111.903 33.8218C111.813 33.5474 111.644 33.3058 111.418 33.127C111.304 33.0373 111.171 32.9733 111.03 32.9393C110.857 32.9035 110.68 32.8872 110.504 32.8908H110.005V32.89ZM107.83 32.1114L109.118 32.1531C109.321 32.1531 109.656 32.144 110.123 32.1257C110.588 32.107 110.836 32.0983 110.864 32.0983C111.113 32.0983 111.362 32.1006 111.612 32.1051C111.864 32.1101 112.114 32.1404 112.36 32.1954C112.896 32.3033 113.379 32.5899 113.732 33.0085C114.076 33.4284 114.258 33.959 114.244 34.5027C114.25 34.8863 114.197 35.2685 114.085 35.6354C113.968 35.9821 113.771 36.2964 113.511 36.5527C113.26 36.8171 112.958 37.0275 112.623 37.1713C112.282 37.2952 111.93 37.3837 111.571 37.4355C111.372 37.4671 111.171 37.4854 110.969 37.4903C110.725 37.4999 110.588 37.5043 110.561 37.5043H109.951C109.951 37.8289 109.955 38.1535 109.965 38.4779C109.974 38.8023 109.984 39.1224 109.992 39.438C109.992 39.6886 110.006 40.055 110.034 40.5372C110.061 41.0195 110.075 41.3811 110.075 41.6219C109.937 41.6219 109.729 41.6098 109.452 41.5854C109.175 41.561 108.999 41.5492 108.926 41.5492C108.759 41.5492 108.542 41.5613 108.274 41.5854C108.006 41.6096 107.844 41.6217 107.789 41.6219L107.886 40.8854C107.886 40.6626 107.893 40.3704 107.907 40.0089C107.921 39.6479 107.928 39.4347 107.928 39.3697V37.2574C107.928 36.831 107.921 36.1218 107.907 35.1301C107.893 34.1383 107.886 33.6053 107.886 33.5311V33.1835C107.886 32.8262 107.868 32.4691 107.832 32.1136" fill="#292F36"/>
<path d="M35.6522 41.7193C34.1334 39.5859 41.3471 36.2688 41.3471 36.2688C41.3471 36.2688 32.8441 38.8875 31.5164 39.2655C27.8125 40.3192 26.4756 40.6824 22.8649 41.7344C19.8744 42.6056 19.6606 44.1759 23.3508 45.7576C28.0102 47.7558 40.8286 52.0854 51.1827 54.9019C62.2373 57.909 94.2046 65.5711 112.409 69.9023C117.34 66.5029 120.913 62.6558 122.77 58.5218C115.002 57.2539 107.08 55.9059 99.4587 54.5211C79.4868 50.8929 42.8522 48.2572 35.6522 41.7193Z" fill="#292F36"/>
<path d="M18.6486 44.3174C18.0103 41.2085 21.207 41.2052 30.8665 38.7931C39.827 36.5558 41.3466 36.2694 41.3466 36.2694C41.3466 36.2694 -4.26249 34.3326 0.52842 54.277C3.20663 65.4282 16.3122 75.1468 31.8216 82.9815C38.8793 83.981 45.9987 84.4777 53.1264 84.4678C64.6158 84.4678 75.4676 83.2193 85.0718 81.0061C64.9401 73.1879 41.7496 64.1627 35.534 61.6686C27.3578 58.388 11.6369 51.6372 6.8668 47.9829C6.0314 47.3426 5.76123 46.8033 5.63626 46.3979C4.67917 43.2887 7.85123 41.4447 18.7984 39.666C29.226 37.9718 40.617 36.2685 40.617 36.2685C40.617 36.2685 20.6185 40.0232 19.1235 40.3782C15.0584 41.3438 13.2716 41.5512 10.559 42.7856C9.63935 43.2045 6.1777 44.9198 8.82692 46.8552C13.1458 50.0099 27.1483 55.7215 38.2043 60.0073C49.3538 64.3298 71.4563 72.4047 82.556 76.6649C84.0327 77.2314 86.8966 78.3089 90.4359 79.6334C97.5864 77.6124 103.898 75.0303 109.07 72.0182C86.5435 66.5043 59.9373 59.8054 47.6273 55.9992C34.9073 52.0659 19.2972 47.4782 18.6486 44.3174Z" fill="#292F36"/>
</svg>
