<svg width="23" height="24" viewBox="0 0 23 24" fill="none" xmlns="http://www.w3.org/2000/svg">
<path d="M21.3445 17.8343C20.5429 17.0267 18.6013 15.848 17.6593 15.373C16.4326 14.7551 16.3317 14.7047 15.3675 15.421C14.7243 15.899 14.2967 16.326 13.5441 16.1655C12.7914 16.005 11.1558 15.0999 9.72358 13.6724C8.2914 12.2448 7.33376 10.5619 7.17272 9.81178C7.01169 9.06166 7.44583 8.63916 7.91935 7.99455C8.58672 7.08593 8.53624 6.9345 7.96579 5.70787C7.52105 4.75382 6.30797 2.83059 5.49723 2.03302C4.62994 1.1764 4.62994 1.32784 4.07111 1.56004C3.61615 1.75145 3.17968 1.98412 2.76716 2.25513C1.95945 2.79172 1.51117 3.23744 1.19767 3.90729C0.88418 4.57714 0.743336 6.14753 2.36229 9.08842C3.98125 12.0293 5.1171 13.5331 7.46804 15.8773C9.81899 18.2215 11.6268 19.482 14.2695 20.964C17.5387 22.7949 18.7927 22.438 19.4646 22.125C20.1365 21.8121 20.5843 21.3678 21.1219 20.5602C21.3936 20.1484 21.6268 19.7124 21.8186 19.2578C22.0513 18.7011 22.2027 18.7011 21.3445 17.8343Z" stroke="#CDA274" stroke-width="2" stroke-miterlimit="10"/>
</svg>
