<svg width="32" height="25" viewBox="0 0 32 25" fill="none" xmlns="http://www.w3.org/2000/svg">
<path d="M25.0331 0.864999C26.9031 0.864999 28.4048 1.48833 29.5381 2.735C30.7281 3.98166 31.3231 5.65333 31.3231 7.75C31.3231 11.4333 30.0764 14.635 27.5831 17.355C25.1464 20.075 22.1998 22.3133 18.7431 24.07L17.8931 22.625C19.3098 21.7183 20.6131 20.5567 21.8031 19.14C23.0498 17.7233 24.0131 16.1933 24.6931 14.55L22.3131 12.765C21.3498 12.1417 20.5564 11.32 19.9331 10.3C19.3098 9.22333 18.9981 8.20333 18.9981 7.24C18.9981 5.42666 19.5364 3.925 20.6131 2.735C21.7464 1.48833 23.2198 0.864999 25.0331 0.864999ZM7.52309 0.864999C9.39309 0.864999 10.8948 1.48833 12.0281 2.735C13.2181 3.98166 13.8131 5.65333 13.8131 7.75C13.8131 11.4333 12.5664 14.635 10.0731 17.355C7.63642 20.075 4.68975 22.3133 1.23309 24.07L0.383086 22.625C1.79975 21.7183 3.10309 20.5567 4.29309 19.14C5.53975 17.7233 6.50309 16.1933 7.18309 14.55L4.80309 12.765C3.83975 12.1417 3.04642 11.32 2.42309 10.3C1.79975 9.22333 1.48809 8.20333 1.48809 7.24C1.48809 5.42666 2.02642 3.925 3.10309 2.735C4.23642 1.48833 5.70975 0.864999 7.52309 0.864999Z" fill="#CDA274"/>
</svg>
